<svg xmlns="http://www.w3.org/2000/svg" xmlns:xlink="http://www.w3.org/1999/xlink" width="65.463" height="48.282" viewBox="0 0 65.463 48.282">
  <defs>
    <linearGradient id="linear-gradient" x1="0.5" x2="0.5" y2="1" gradientUnits="objectBoundingBox">
      <stop offset="0" stop-color="#33a56d"/>
      <stop offset="1" stop-color="#11a0dd"/>
    </linearGradient>
  </defs>
  <path id="Path_63" data-name="Path 63" d="M366.834,530.757h63.093a1.185,1.185,0,0,0,1.185-1.185v-9.923a1.185,1.185,0,0,0-1.185-1.185h-1.254a30.318,30.318,0,0,0-21.984-28.208l-.213-1.607a7.13,7.13,0,0,0-7.047-6.174h-1.8a7.13,7.13,0,0,0-7.047,6.174l-.213,1.606a30.235,30.235,0,0,0-15.52,10.435,30.544,30.544,0,0,0-6.463,17.774h-1.551a1.185,1.185,0,0,0-1.185,1.185v9.923A1.185,1.185,0,0,0,366.834,530.757Zm24.893-38.41a1.186,1.186,0,0,0,.886-.994l.317-2.392a4.753,4.753,0,0,1,4.7-4.116h1.8a4.754,4.754,0,0,1,4.7,4.116l.317,2.392a1.183,1.183,0,0,0,.886.993,27.018,27.018,0,0,1,3.724,1.231l-.533,9.588a4.958,4.958,0,0,1-2.5,4.033,7.766,7.766,0,0,0-14.935-.158,5,5,0,0,1-2.251-3.874l-.564-9.694A26.9,26.9,0,0,1,391.727,492.346Zm12.2,16.9a5.4,5.4,0,1,1-5.4-5.4,5.4,5.4,0,0,1,5.4,5.4Zm-27.214-7.1a28.026,28.026,0,0,1,9.243-7.629l.51,8.778a7.389,7.389,0,0,0,4.3,6.264,7.766,7.766,0,0,0,15.514.131,7.331,7.331,0,0,0,4.6-6.4l.481-8.637a28.038,28.038,0,0,1,8.977,7.48,27.711,27.711,0,0,1,5.959,16.324H370.756A28.167,28.167,0,0,1,376.713,502.152Zm-8.694,18.681h60.723v7.553H368.019Z" transform="translate(-365.649 -482.475)" fill="url(#linear-gradient)"/>
</svg>
