<svg xmlns="http://www.w3.org/2000/svg" xmlns:xlink="http://www.w3.org/1999/xlink" width="68.125" height="68.123" viewBox="0 0 68.125 68.123">
  <defs>
    <linearGradient id="linear-gradient" x1="0.5" x2="0.5" y2="1" gradientUnits="objectBoundingBox">
      <stop offset="0" stop-color="#33a56d"/>
      <stop offset="1" stop-color="#11a0dd"/>
    </linearGradient>
  </defs>
  <path id="Path_64" data-name="Path 64" d="M558.45,486.508a1.063,1.063,0,0,0-1.374-.586c-.047.019-4.824,1.786-12.906-3.064a34.663,34.663,0,0,0-16.287-5.091,4.3,4.3,0,0,0,.927-2.67,4.344,4.344,0,1,0-7.761,2.67,34.655,34.655,0,0,0-16.286,5.091c-8.066,4.838-12.855,3.083-12.9,3.066a1.058,1.058,0,0,0-1.379,1.385,1.05,1.05,0,0,0,.574.571,9.2,9.2,0,0,0,3.316.5,20.223,20.223,0,0,0,8.443-2.095l-7.364,27.574H493.06A1.059,1.059,0,0,0,492,514.918v2.589a4.693,4.693,0,0,0,4.689,4.688h16.451a4.693,4.693,0,0,0,4.689-4.688v-2.589a1.059,1.059,0,0,0-1.058-1.058h-3.364l-7.762-29.069.2-.119a32.692,32.692,0,0,1,16.15-4.8,4.185,4.185,0,0,0-.4,1.592l-2.734,45.507h-2.216a4.251,4.251,0,0,0-4.247,4.246v.5h-1.06a1.059,1.059,0,0,0-1.058,1.058v5.041a1.059,1.059,0,0,0,1.058,1.058h26.235a1.058,1.058,0,0,0,1.058-1.058v-5.041a1.059,1.059,0,0,0-1.058-1.058h-1.06v-.5a4.251,4.251,0,0,0-4.246-4.246h-2.216l-2.735-45.507a4.175,4.175,0,0,0-.4-1.593,32.571,32.571,0,0,1,15.383,4.358l-7.765,29.632h-2.39a1.059,1.059,0,0,0-1.058,1.058v2.589a4.693,4.693,0,0,0,4.688,4.688h16.452a4.693,4.693,0,0,0,4.689-4.688v-2.589a1.059,1.059,0,0,0-1.058-1.058H552.51l-7.348-28.038a20.945,20.945,0,0,0,9.4,2.558,9.231,9.231,0,0,0,3.317-.5A1.06,1.06,0,0,0,558.45,486.508Zm-3.637,31a2.575,2.575,0,0,1-2.573,2.572H535.788a2.575,2.575,0,0,1-2.572-2.572v-1.531h21.6ZM512.406,536.76v-2.925h24.119v2.925Zm22-5.041H514.524v-.5a2.133,2.133,0,0,1,2.131-2.13h15.621a2.132,2.132,0,0,1,2.13,2.13Zm-18.692-14.212a2.575,2.575,0,0,1-2.573,2.572H496.691a2.575,2.575,0,0,1-2.573-2.572v-1.531h21.6Zm-18.073-3.647,6.789-25.42,6.788,25.42Zm39.093,0,6.793-25.922,6.794,25.922Zm-14.5-38.763a2.228,2.228,0,1,1,2.228,2.228A2.231,2.231,0,0,1,522.237,475.1Zm-1.247,51.873,2.728-45.379c.1-1.654,1.4-1.654,1.5,0l2.727,45.379Z" transform="translate(-490.401 -470.753)" fill="url(#linear-gradient)"/>
</svg>
