<svg xmlns="http://www.w3.org/2000/svg" xmlns:xlink="http://www.w3.org/1999/xlink" width="58.489" height="58.966" viewBox="0 0 58.489 58.966">
  <defs>
    <linearGradient id="linear-gradient" x1="0.5" x2="0.5" y2="1" gradientUnits="objectBoundingBox">
      <stop offset="0" stop-color="#33a56d"/>
      <stop offset="1" stop-color="#11a0dd"/>
    </linearGradient>
  </defs>
  <path id="Path_72" data-name="Path 72" d="M770.108,524.612a29.221,29.221,0,1,0-45.667-2.117c4.891,6.761,12.272,11.264,19.263,11.754.194.014.385.019.574.019a6.445,6.445,0,0,0,4.766-1.957,10.287,10.287,0,0,0,2.407-7.78c-.029-.27-.051-.588-.078-.951-.07-.945-.164-2.194-.4-3.676.229-.642.539-1.438.926-2.321.113,0,.267.007.464.007,2.077,0,8.5-.394,12.68-5a17,17,0,0,0,3.774-12.774c-.372-3.455-1.756-6.2-3.9-7.719a1.123,1.123,0,0,0-1.757.718c-.228,1.27-2.394,3.566-3.687,4.392-8.045,5.137-8.33,11.281-8.339,11.541a1.123,1.123,0,1,0,2.244.072c0-.052.245-5.213,7.3-9.72a14.919,14.919,0,0,0,3.993-4.166,9.823,9.823,0,0,1,1.907,5.124,14.672,14.672,0,0,1-3.2,11.023c-3.206,3.529-8.186,4.149-10.405,4.245,1.566-3.031,3.753-6.224,6.187-7.1a1.122,1.122,0,0,0-.76-2.112c-3.788,1.363-6.67,6.41-8.281,9.949-1.292-4.492-4-10.158-9.94-16.094a1.123,1.123,0,0,0-1.589,1.589,40.038,40.038,0,0,1,6.071,7.66,19.211,19.211,0,0,1-9.826-4.066c-2.542-2.069-4.121-5.875-4.122-9.932a11.017,11.017,0,0,1,2.094-6.93,15.4,15.4,0,0,0,4.82,3.087c.506.237.983.462,1.349.664,7.572,4.2,7.889,13.119,7.891,13.208a1.123,1.123,0,0,0,2.246-.053c-.01-.417-.328-10.281-9.047-15.118-.432-.239-.942-.48-1.483-.735-1.7-.8-3.808-1.791-4.675-3.316a1.124,1.124,0,0,0-1.686-.316c-2.352,1.915-3.756,5.47-3.755,9.507,0,4.788,1.851,9.151,4.95,11.673a21.3,21.3,0,0,0,12.533,4.669,29.839,29.839,0,0,1,2.71,8.171,1.114,1.114,0,0,0,.149.908c.181,1.242.26,2.293.319,3.107.029.386.055.726.084,1.015a8.051,8.051,0,0,1-1.786,5.988,4.3,4.3,0,0,1-3.569,1.258c-6.345-.443-13.088-4.594-17.6-10.83a26.971,26.971,0,1,1,42.512,1.538,7.787,7.787,0,0,0-6.106-2.846,8.553,8.553,0,0,0-5.04,1.649,1.123,1.123,0,0,0-.251,1.568l1.124,1.552-3.186,2.3a1.123,1.123,0,0,0,.658,2.034,1.113,1.113,0,0,0,.658-.213l3.185-2.3,3.136,4.335-3.185,2.3a1.123,1.123,0,1,0,1.317,1.82l3.185-2.3,1.124,1.553a1.126,1.126,0,0,0,1.569.251,8.292,8.292,0,0,0,3.009-9.671A1.151,1.151,0,0,0,770.108,524.612Zm-3.614,7.246-6.586-9.1a6.237,6.237,0,0,1,2.756-.643,5.561,5.561,0,0,1,4.578,2.272A5.842,5.842,0,0,1,766.495,531.858Z" transform="translate(-718.889 -476.163)" fill="url(#linear-gradient)"/>
</svg>
