<svg xmlns="http://www.w3.org/2000/svg" width="44" height="44" viewBox="0 0 44 44"><defs><style>.a,.d{fill:none;}.a{stroke:#11a0dd;stroke-width:3px;}.b{fill:#11a0dd;}.c{stroke:none;}</style></defs><g transform="translate(3.025 3)"><g class="a" transform="translate(-0.025)"><circle class="c" cx="19" cy="19" r="19"/><circle class="d" cx="19" cy="19" r="20.5"/></g><path class="b" d="M41.381,193.963H43.4V192a5.259,5.259,0,0,1,.647-3.022,3.587,3.587,0,0,1,3.127-1.466,12.669,12.669,0,0,1,3.612.362l-.505,2.986a6.758,6.758,0,0,0-1.621-.244c-.785,0-1.488.282-1.488,1.064v2.278h3.213l-.223,2.914h-2.99v10.129H43.4V196.876H41.38v-2.913Z" transform="translate(-26.596 -178.432)"/></g></svg>