<svg xmlns="http://www.w3.org/2000/svg" width="40" height="39" viewBox="0 0 40 39">
  <g id="facebook_icon_branco" transform="translate(-958 -3432)">
    <g id="Ellipse_23" data-name="Ellipse 23" transform="translate(961 3435)" fill="none" stroke="#fff" stroke-width="3">
      <ellipse cx="17" cy="16.5" rx="17" ry="16.5" stroke="none"/>
      <ellipse cx="17" cy="16.5" rx="18.5" ry="18" fill="none"/>
    </g>
    <path id="Path_208" data-name="Path 208" d="M41.381,193.14h1.76v-1.709a4.588,4.588,0,0,1,.564-2.636,3.129,3.129,0,0,1,2.728-1.278,11.051,11.051,0,0,1,3.151.316l-.441,2.6a5.9,5.9,0,0,0-1.414-.213c-.685,0-1.3.246-1.3.928v1.987h2.8l-.195,2.542H46.432v8.836H43.138v-8.836H41.38V193.14Z" transform="translate(932.517 3255.409)" fill="#fff"/>
  </g>
</svg>
