<svg xmlns="http://www.w3.org/2000/svg" width="556.24" height="143.133" viewBox="0 0 556.24 143.133">
  <g id="Group_129" data-name="Group 129" transform="translate(-1493.879 -433.632)">
    <g id="Group_32" data-name="Group 32" transform="translate(1496 435.132)">
      <path id="Path_75" data-name="Path 75" d="M976.748,736.566c18.416-18.5,42.126-36.677,69.972-36.677,39.556,0,56.426,46.794,100.1,46.794,50.952,0,54.73-46.794,105.793-46.794,50.682,0,60.643,46.794,106.286,46.794,44.2,0,62.254-46.794,100.6-46.794,29.765,0,55.452,23.4,69.254,38.617" transform="translate(-976.748 -699.889)" fill="none" stroke="#11a0dd" stroke-linecap="round" stroke-linejoin="round" stroke-width="3"/>
      <path id="Path_76" data-name="Path 76" d="M976.748,758.7c18.416-18.5,42.126-36.673,69.972-36.673,39.556,0,56.426,46.79,100.1,46.79,50.952,0,54.73-46.79,105.793-46.79,50.682,0,60.643,46.79,106.286,46.79,44.2,0,62.254-46.79,100.6-46.79,29.765,0,55.452,23.393,69.254,38.617" transform="translate(-976.748 -628.68)" fill="none" stroke="#11a0dd" stroke-linecap="round" stroke-linejoin="round" stroke-width="3"/>
    </g>
  </g>
</svg>
