<svg xmlns="http://www.w3.org/2000/svg" width="51.645" height="42.708" viewBox="0 0 51.645 42.708"><defs><style>.a{fill:#33a56d;}</style></defs><g transform="translate(-833.007 -486.588)"><g transform="translate(833.007 486.588)"><path class="a" d="M833.011,498.954v25.058a5.289,5.289,0,0,0,5.284,5.284h34.047a5.289,5.289,0,0,0,5.284-5.284v-1.743h1.743a5.289,5.289,0,0,0,5.284-5.284V491.872a5.289,5.289,0,0,0-5.284-5.284h-34.1a5.289,5.289,0,0,0-5.284,5.284v1.743h-1.8A5.176,5.176,0,0,0,833.011,498.954Zm5.229-3.16h34.047a3.162,3.162,0,0,1,3.159,3.16v22.879l-6.482-6.537a7.134,7.134,0,0,0-10.078,0l-.381.381-5.884-5.883a7.134,7.134,0,0,0-10.078,0l-7.518,7.572V498.954A3.108,3.108,0,0,1,838.24,495.794Zm41.128,24.3h-1.8V498.9a5.289,5.289,0,0,0-5.284-5.284H842.162v-1.743a3.162,3.162,0,0,1,3.159-3.159h34.046a3.162,3.162,0,0,1,3.16,3.159v25.113a3.162,3.162,0,0,1-3.16,3.159Zm-7.081,7.081H850.061l10.35-10.35a5,5,0,0,1,7.082,0l7.9,7.9A3.148,3.148,0,0,1,872.286,527.171Zm-37.261-3.1v-3.7l9.043-9.042a5,5,0,0,1,7.082,0l5.883,5.883L847.01,527.226h-8.824A3.2,3.2,0,0,1,835.026,524.066Z" transform="translate(-833.007 -486.588)"/><path class="a" d="M882.021,509.558a4.249,4.249,0,1,0-4.249,4.248A4.255,4.255,0,0,0,882.021,509.558ZM879.9,509.5a2.125,2.125,0,1,1-2.124-2.125A2.127,2.127,0,0,1,879.9,509.5Z" transform="translate(-844.049 -491.69)"/></g></g></svg>