<svg id="geoprocessamento_icon" xmlns="http://www.w3.org/2000/svg" xmlns:xlink="http://www.w3.org/1999/xlink" width="68.128" height="68.128" viewBox="0 0 68.128 68.128">
  <defs>
    <linearGradient id="linear-gradient" x1="0.5" x2="0.5" y2="1" gradientUnits="objectBoundingBox">
      <stop offset="0" stop-color="#33a56d"/>
      <stop offset="1" stop-color="#11a0dd"/>
    </linearGradient>
  </defs>
  <path id="Path_65" data-name="Path 65" d="M626.753,519.318a15.946,15.946,0,1,0-15.946-15.945A15.964,15.964,0,0,0,626.753,519.318Zm-4.064-29.148a21.127,21.127,0,0,0-4.1,8.084h-4.663A13.848,13.848,0,0,1,622.689,490.17Zm3.006,18.322v7.555a19.955,19.955,0,0,1-4.741-7.555Zm-6.985,0a21.206,21.206,0,0,0,4.76,8.31,13.931,13.931,0,0,1-9.548-8.31Zm6.985-8.122v6.006h-5.309a16,16,0,0,1-.314-3.131,17.863,17.863,0,0,1,.234-2.875Zm-4.9-2.116a19.57,19.57,0,0,1,4.9-8.239v8.239Zm-2.838,4.991a18.747,18.747,0,0,0,.266,3.131h-4.957a13.329,13.329,0,0,1,0-6.006h4.9A19.944,19.944,0,0,0,617.957,503.244Zm9.854,12.833v-7.585h4.746A19.952,19.952,0,0,1,627.811,516.077Zm0-17.823v-8.224a19.486,19.486,0,0,1,4.9,8.224Zm7.524,2.116h4.9a13.294,13.294,0,0,1,0,6.006h-4.955a18.8,18.8,0,0,0,.264-3.13A19.782,19.782,0,0,0,635.335,500.37Zm4.248,8.122a13.933,13.933,0,0,1-9.516,8.3,21.228,21.228,0,0,0,4.733-8.3Zm-4.664-10.238a21.128,21.128,0,0,0-4.12-8.09,13.841,13.841,0,0,1,8.785,8.09Zm-7.108,8.122V500.37H633.2a17.841,17.841,0,0,1,.233,2.876,16.023,16.023,0,0,1-.311,3.13Z" transform="translate(-605.384 -473.313)" fill="url(#linear-gradient)"/>
  <path id="Path_66" data-name="Path 66" d="M671.469,479.277H647.137v-7.469a1.059,1.059,0,0,0-1.058-1.058H605.457a1.059,1.059,0,0,0-1.058,1.058v57.485a1.059,1.059,0,0,0,1.058,1.058h24.331v7.469a1.059,1.059,0,0,0,1.058,1.058h40.623a1.059,1.059,0,0,0,1.058-1.058V480.334A1.059,1.059,0,0,0,671.469,479.277Zm-18.064,55.964a1.059,1.059,0,0,0-1.907.433c-.075.438-.129.8-.168,1.087H634.838l11.757-6.544a.619.619,0,0,0,.115-.093.964.964,0,0,0,.157-.137,1,1,0,0,0,.116-.171.974.974,0,0,0,.086-.174,1.181,1.181,0,0,0,.049-.231.42.42,0,0,0,.019-.119V491.162c2.234.906,8.423,4.454,11.862,16.643,4.114,14.582,9.985,18.427,11.412,19.168v9.788H653.468c.03-.21.069-.454.117-.73A1.055,1.055,0,0,0,653.405,535.241Zm11.7-20.5a1.058,1.058,0,1,0-1.38-1.6c-.179.154-.35.311-.52.47a61.038,61.038,0,0,1-2.166-6.38c-4-14.189-11.46-17.577-13.9-18.317v-7.52h23.273v43.075c-1.423-1.075-3.87-3.529-6.322-8.809C664.452,515.317,664.784,515.017,665.1,514.743Zm-20.079-41.878v55.37H606.515v-55.37ZM642,530.351l-10.1,5.622v-5.622Z" transform="translate(-604.399 -470.75)" fill="url(#linear-gradient)"/>
  <path id="Path_67" data-name="Path 67" d="M669.654,528.233a1.049,1.049,0,0,0,.844-.418c.335-.442.68-.872,1.023-1.278a1.058,1.058,0,0,0-.9-1.737,1.046,1.046,0,0,0-.719.372c-.367.435-.735.894-1.092,1.365a1.057,1.057,0,0,0,.841,1.7Z" transform="translate(-614.266 -479.057)" fill="url(#linear-gradient)"/>
  <path id="Path_68" data-name="Path 68" d="M665.87,533.1a1.057,1.057,0,0,0,1.439-.41c.273-.49.553-.967.831-1.42A1.058,1.058,0,0,0,667,529.685a1.057,1.057,0,0,0-.659.475c-.3.5-.6,1-.879,1.5a1.058,1.058,0,0,0,.41,1.439Z" transform="translate(-613.763 -479.804)" fill="url(#linear-gradient)"/>
  <path id="Path_69" data-name="Path 69" d="M662.971,543.543c.132-.5.283-1.035.453-1.589a1.058,1.058,0,1,0-2.023-.62c-.179.583-.337,1.143-.476,1.672a1.058,1.058,0,0,0,.754,1.292,1.082,1.082,0,0,0,.27.035A1.058,1.058,0,0,0,662.971,543.543Z" transform="translate(-613.081 -481.483)" fill="url(#linear-gradient)"/>
  <path id="Path_70" data-name="Path 70" d="M680.614,517.528a1.062,1.062,0,0,0-1.453-.356c-.5.3-1,.624-1.473.949a1.058,1.058,0,1,0,1.2,1.746c.449-.307.911-.605,1.373-.884A1.062,1.062,0,0,0,680.614,517.528Z" transform="translate(-615.593 -477.861)" fill="url(#linear-gradient)"/>
  <path id="Path_71" data-name="Path 71" d="M663.433,538.566a1.057,1.057,0,0,0,1.373-.593c.2-.5.41-1.006.64-1.522a1.058,1.058,0,1,0-1.932-.862c-.231.519-.459,1.058-.674,1.6A1.06,1.06,0,0,0,663.433,538.566Z" transform="translate(-613.369 -480.619)" fill="url(#linear-gradient)"/>
</svg>
