<svg xmlns="http://www.w3.org/2000/svg" width="43" height="44" viewBox="0 0 43 44"><defs><style>.a,.d{fill:none;}.a{stroke:#11a0dd;stroke-width:3px;}.b{fill:#11a0dd;fill-rule:evenodd;}.c{stroke:none;}</style></defs><g transform="translate(2.513 3)"><g class="a" transform="translate(0.487)"><ellipse class="c" cx="18.5" cy="19" rx="18.5" ry="19"/><ellipse class="d" cx="18.5" cy="19" rx="20" ry="20.5"/></g><g transform="translate(8.066 8.311)"><path class="b" d="M87.2,54.441a5.8,5.8,0,0,1,5.455,6.1c.062,3.118.068,6.239-.007,9.356a6.027,6.027,0,0,1-2.35,4.931,6.442,6.442,0,0,1-3.868,1.26c-3.1.05-6.2.071-9.3,0a6.029,6.029,0,0,1-5.08-2.49A6.521,6.521,0,0,1,70.9,69.853c-.047-3.1-.07-6.2.005-9.3a6,6,0,0,1,2.5-5.074,6.817,6.817,0,0,1,3.8-1.15C78.723,54.279,85.412,54.243,87.2,54.441ZM72.98,65.227c0,1.487-.034,2.975.012,4.461a4.628,4.628,0,0,0,.954,2.889A4.221,4.221,0,0,0,77.4,73.993q4.378.074,8.759,0a4.472,4.472,0,0,0,3.116-1.068,4.375,4.375,0,0,0,1.282-3.355c.052-2.9.042-5.8,0-8.7a4.641,4.641,0,0,0-.832-2.877,4.126,4.126,0,0,0-3.393-1.554c-3.046-.045-6.094-.055-9.139.005a3.961,3.961,0,0,0-3.447,1.644,4.894,4.894,0,0,0-.76,2.686C72.955,62.252,72.979,63.74,72.98,65.227Z" transform="translate(-70.854 -54.29)"/><path class="b" d="M125.059,102.534a5.9,5.9,0,1,1-5.956,5.873A5.941,5.941,0,0,1,125.059,102.534Zm-.078,2.187a3.712,3.712,0,1,0,3.734,3.705A3.775,3.775,0,0,0,124.981,104.721Z" transform="translate(-114.083 -97.515)"/><path class="b" d="M213.363,91.216a1.255,1.255,0,0,1-1.318-1.293,1.317,1.317,0,0,1,1.306-1.325,1.352,1.352,0,0,1,1.309,1.339A1.317,1.317,0,0,1,213.363,91.216Z" transform="translate(-196.578 -84.839)"/></g></g></svg>