<svg xmlns="http://www.w3.org/2000/svg" width="40" height="39" viewBox="0 0 40 39">
  <g id="intagram_icon_branco" transform="translate(-898 -3432)">
    <g id="Ellipse_9" data-name="Ellipse 9" transform="translate(901 3435)" fill="none" stroke="#fff" stroke-width="3">
      <ellipse cx="17" cy="16.5" rx="17" ry="16.5" stroke="none"/>
      <ellipse cx="17" cy="16.5" rx="18.5" ry="18" fill="none"/>
    </g>
    <g id="Group_121" data-name="Group 121" transform="translate(908.909 3442.25)">
      <path id="Path_46" data-name="Path 46" d="M85.114,54.422a5.056,5.056,0,0,1,4.758,5.321c.055,2.72.059,5.443-.006,8.162a5.258,5.258,0,0,1-2.05,4.3,5.62,5.62,0,0,1-3.374,1.1c-2.7.044-5.411.062-8.114,0A5.259,5.259,0,0,1,71.9,71.131a5.688,5.688,0,0,1-1-3.264c-.041-2.7-.061-5.411,0-8.115a5.237,5.237,0,0,1,2.181-4.426,5.946,5.946,0,0,1,3.314-1C77.719,54.281,83.553,54.249,85.114,54.422ZM72.708,63.831c0,1.3-.03,2.6.01,3.891a4.038,4.038,0,0,0,.832,2.52,3.682,3.682,0,0,0,3.015,1.236q3.819.064,7.64,0a3.9,3.9,0,0,0,2.718-.931,3.816,3.816,0,0,0,1.118-2.927c.046-2.53.037-5.062,0-7.593a4.048,4.048,0,0,0-.726-2.51,3.6,3.6,0,0,0-2.96-1.356c-2.657-.039-5.316-.048-7.973,0A3.455,3.455,0,0,0,73.378,57.6a4.269,4.269,0,0,0-.663,2.343C72.686,61.236,72.708,62.534,72.708,63.831Z" transform="translate(-70.854 -54.29)" fill="#fff" fill-rule="evenodd"/>
      <path id="Path_47" data-name="Path 47" d="M124.3,102.534a5.149,5.149,0,1,1-5.2,5.123A5.183,5.183,0,0,1,124.3,102.534Zm-.068,1.907a3.239,3.239,0,1,0,3.257,3.232A3.293,3.293,0,0,0,124.23,104.442Z" transform="translate(-114.724 -98.155)" fill="#fff" fill-rule="evenodd"/>
      <path id="Path_48" data-name="Path 48" d="M213.2,90.881a1.1,1.1,0,0,1-1.15-1.128,1.149,1.149,0,0,1,1.14-1.156,1.179,1.179,0,0,1,1.142,1.168A1.149,1.149,0,0,1,213.2,90.881Z" transform="translate(-198.553 -85.318)" fill="#fff" fill-rule="evenodd"/>
    </g>
  </g>
</svg>
