<svg xmlns="http://www.w3.org/2000/svg" width="23.087" height="21.202" viewBox="0 0 23.087 21.202">
  <path id="Path_210" data-name="Path 210" d="M42.583,58.7h-4.5V44.3h4.5ZM40.22,42.5h-.032a2.508,2.508,0,1,1,.065-5,2.509,2.509,0,1,1-.032,5ZM60.587,58.7h-5.1V51.252c0-1.952-.8-3.283-2.552-3.283A2.581,2.581,0,0,0,50.5,49.732a3.265,3.265,0,0,0-.109,1.179V58.7H45.333s.066-13.2,0-14.4h5.053v2.261c.3-.99,1.915-2.4,4.492-2.4,3.2,0,5.712,2.073,5.712,6.533l0,8.01Z" transform="translate(-37.503 -37.503)" fill="#272749"/>
</svg>
