<svg xmlns="http://www.w3.org/2000/svg" width="39" height="39" viewBox="0 0 39 39">
  <g id="linkedinn_icon_branco" transform="translate(-874 -3432)">
    <g id="Ellipse_10" data-name="Ellipse 10" transform="translate(877 3435)" fill="none" stroke="#fff" stroke-width="3">
      <circle cx="16.5" cy="16.5" r="16.5" stroke="none"/>
      <circle cx="16.5" cy="16.5" r="18" fill="none"/>
    </g>
    <path id="Path_77" data-name="Path 77" d="M41.2,52.948H37.925V42.456H41.2Zm-1.721-11.8h-.024a2.021,2.021,0,1,1,.024,0Zm14.837,11.8H50.6V47.518c0-1.422-.581-2.392-1.859-2.392a1.88,1.88,0,0,0-1.774,1.285,2.378,2.378,0,0,0-.08.859v5.676H43.207s.048-9.617,0-10.492h3.681V44.1a3.36,3.36,0,0,1,3.272-1.748c2.33,0,4.161,1.51,4.161,4.759l0,5.835Z" transform="translate(847.588 3405.588)" fill="#fff"/>
  </g>
</svg>
