<svg xmlns="http://www.w3.org/2000/svg" width="44" height="44" viewBox="0 0 44 44"><defs><style>.a,.d{fill:none;}.a{stroke:#11a0dd;stroke-width:3px;}.b{fill:#11a0dd;}.c{stroke:none;}</style></defs><g transform="translate(3 3)"><g class="a" transform="translate(0)"><circle class="c" cx="19" cy="19" r="19"/><circle class="d" cx="19" cy="19" r="20.5"/></g><path class="b" d="M41.745,55.208H37.986V43.18h3.758ZM39.772,41.677h-.027a2.317,2.317,0,1,1,.027,0ZM56.78,55.208H52.518V48.984c0-1.63-.666-2.742-2.131-2.742a2.155,2.155,0,0,0-2.033,1.473,2.726,2.726,0,0,0-.091.985v6.507h-4.22s.055-11.025,0-12.027h4.22v1.888c.249-.826,1.6-2,3.751-2,2.671,0,4.77,1.731,4.77,5.455l0,6.689Z" transform="translate(-28.228 -28.228)"/></g></svg>