<svg xmlns="http://www.w3.org/2000/svg" width="292" height="110.716" viewBox="0 0 292 110.716">
  <g id="Group_21" data-name="Group 21" transform="translate(-2463.288 -171.074)">
    <g id="Group_17" data-name="Group 17" transform="translate(2463.288 171.074)">
      <g id="Group_1" data-name="Group 1" transform="translate(1.795 6.842)">
        <path id="Path_1" data-name="Path 1" d="M2549.375,178.594s-34.972-4.263-38.605,23.993c-2.349,18.265-9.516,16.343-9.516,16.343l-.552-1.361c-8.895-20.2-35.5-10.928-35.5-10.928v37.8s3.953,36.7,42.71,36.7,41.464-36.7,41.464-36.7Z" transform="translate(-2465.201 -178.365)" fill="#276a44"/>
      </g>
      <g id="Group_2" data-name="Group 2" transform="translate(1.795 32.994)">
        <path id="Path_2" data-name="Path 2" d="M2549.375,233.372c-20.287,12.414-42.088,10.294-47.087-9.421-6.644-26.2-37.087-15.593-37.087-15.593v37.8s3.953,36.7,42.71,36.7,41.464-36.7,41.464-36.7Z" transform="translate(-2465.201 -206.235)" fill="#36a065"/>
      </g>
      <g id="Group_3" data-name="Group 3" transform="translate(3.708 75.361)">
        <path id="Path_3" data-name="Path 3" d="M2467.241,256.725c2.874-2,6.133-5.34,10.187-5.34,5.76,0,7.115,6.813,13.474,6.813,7.418,0,9.067-6.813,16.5-6.813,7.378,0,7.737,6.813,14.382,6.813,6.434,0,10.156-6.813,15.738-6.813,4.428,0,7.306,3.77,10.063,5.687-3.417,10.845-13.036,28.133-39.637,28.133-26.885,0-37.022-17.661-40.71-28.479" transform="translate(-2467.24 -251.385)" fill="#129bdb"/>
      </g>
      <g id="Group_5" data-name="Group 5" transform="translate(8.931 89.904)">
        <g id="Group_4" data-name="Group 4">
          <path id="Path_4" data-name="Path 4" d="M2522.128,273.7c-6.644,0-7-6.813-14.381-6.813-7.435,0-9.084,6.813-16.5,6.813-6.359,0-7.714-6.813-13.474-6.813a9.7,9.7,0,0,0-4.964,1.566c5.919,8.957,16.543,17.711,35.471,17.711,18.783,0,29.1-8.62,34.743-17.505a9.072,9.072,0,0,0-5.154-1.772C2532.284,266.883,2528.563,273.7,2522.128,273.7Z" transform="translate(-2472.806 -266.883)" fill="#006d8b"/>
        </g>
      </g>
      <g id="Group_6" data-name="Group 6" transform="translate(0 5.745)">
        <path id="Path_5" data-name="Path 5" d="M2507.533,282.167c-20.717,0-31.656-10.366-37.183-19.062A48.689,48.689,0,0,1,2463.3,244.1a1.361,1.361,0,0,1-.01-.164v-37.8a1.535,1.535,0,0,1,3.071,0v37.71A46.607,46.607,0,0,0,2473,261.555c7.444,11.64,19.062,17.542,34.531,17.542,15.451,0,26.854-5.891,33.891-17.508a45.176,45.176,0,0,0,6.038-17.721V178.731a1.535,1.535,0,1,1,3.069,0v65.2q0,.056,0,.113a47.332,47.332,0,0,1-6.415,19.028C2538.871,271.784,2528.27,282.167,2507.533,282.167Z" transform="translate(-2463.288 -177.196)" fill="#1c223f"/>
      </g>
      <g id="Group_7" data-name="Group 7" transform="translate(0 30.871)">
        <path id="Path_6" data-name="Path 6" d="M2525.646,241.923a32.372,32.372,0,0,1-9.982-1.529c-8.4-2.725-13.819-8.674-15.265-16.752-1.133-6.334-4.023-10.913-8.592-13.609-10.411-6.146-26.329-.855-26.49-.8a1.535,1.535,0,0,1-.989-2.906c.706-.24,17.4-5.8,29.029,1.057,5.379,3.171,8.765,8.459,10.065,15.719,1.235,6.909,5.92,12.013,13.189,14.372a32.492,32.492,0,0,0,31.32-7.249,1.535,1.535,0,0,1,2.129,2.213A35.793,35.793,0,0,1,2525.646,241.923Z" transform="translate(-2463.288 -203.973)" fill="#1c223f"/>
      </g>
      <g id="Group_8" data-name="Group 8" transform="translate(37.454 4.863)">
        <path id="Path_7" data-name="Path 7" d="M2504.14,220a3.731,3.731,0,0,1-.938-.1l.8-2.963c-.006,0,.039.007.133.007a3.045,3.045,0,0,0,1.753-.667c1.476-1.07,4.144-4.369,5.441-14.454,1.572-12.221,9.107-20.479,21.79-23.879a54.05,54.05,0,0,1,18.524-1.441,1.535,1.535,0,0,1-.371,3.047,51.884,51.884,0,0,0-17.437,1.38c-11.5,3.108-18.046,10.269-19.461,21.285-1.128,8.773-3.457,14.4-6.921,16.713A5.941,5.941,0,0,1,2504.14,220Z" transform="translate(-2503.202 -176.256)" fill="#1c223f"/>
      </g>
      <g id="Group_9" data-name="Group 9" transform="translate(38.453 2.9)">
        <circle id="Ellipse_1" data-name="Ellipse 1" cx="20.059" cy="20.059" r="20.059" transform="translate(1.535 1.535)" fill="#36a065"/>
        <path id="Path_8" data-name="Path 8" d="M2525.862,217.352a21.594,21.594,0,1,1,21.594-21.595A21.619,21.619,0,0,1,2525.862,217.352Zm0-40.119a18.524,18.524,0,1,0,18.525,18.524A18.545,18.545,0,0,0,2525.862,177.233Z" transform="translate(-2504.267 -174.164)" fill="#1c223f"/>
      </g>
      <g id="Group_10" data-name="Group 10" transform="translate(58.513 27.336)">
        <path id="Path_9" data-name="Path 9" d="M2527.179,241.185a1.535,1.535,0,0,1-1.535-1.535V201.741a1.535,1.535,0,1,1,3.07,0V239.65A1.535,1.535,0,0,1,2527.179,241.185Z" transform="translate(-2525.644 -200.206)" fill="#1c223f"/>
      </g>
      <g id="Group_11" data-name="Group 11" transform="translate(58.82 26.747)">
        <path id="Path_10" data-name="Path 10" d="M2527.2,210.21a1.228,1.228,0,0,1-.831-2.134l8.933-8.176a1.228,1.228,0,0,1,1.658,1.812l-8.932,8.176A1.229,1.229,0,0,1,2527.2,210.21Z" transform="translate(-2525.971 -199.578)" fill="#1c223f"/>
      </g>
      <g id="Group_12" data-name="Group 12" transform="translate(49.647 26.747)">
        <path id="Path_11" data-name="Path 11" d="M2526.354,210.21a1.228,1.228,0,0,1-.829-.322l-8.931-8.176a1.228,1.228,0,0,1,1.658-1.812l8.932,8.176a1.228,1.228,0,0,1-.831,2.134Z" transform="translate(-2516.196 -199.578)" fill="#1c223f"/>
      </g>
      <g id="Group_13" data-name="Group 13" transform="translate(7.372 59.002)">
        <path id="Path_12" data-name="Path 12" d="M2477.481,250.441s2.668-3.466,4.513-4.184c10.155-3.18,10.155-10.873,10.155-10.873a12.776,12.776,0,0,0-10.053,3.605,11.468,11.468,0,0,0-9.642-3.661s-.41,6.928,9.54,10.928c.925.308,4.762,1.828,7.578,8.955" transform="translate(-2471.224 -234.033)" fill="#f27c00"/>
        <path id="Path_13" data-name="Path 13" d="M2489.493,256.359a1.227,1.227,0,0,1-1.143-.777c-2.217-5.61-5.068-7.479-6.377-8.065a17.614,17.614,0,0,0-3.6,3.593,1.228,1.228,0,0,1-1.946-1.5,24.992,24.992,0,0,1,2.987-3.22c-8.561-4.358-8.283-10.919-8.265-11.215a1.228,1.228,0,0,1,1.036-1.14,12.672,12.672,0,0,1,9.872,3.174,13.964,13.964,0,0,1,10.182-3.123,1.228,1.228,0,0,1,1.058,1.216c0,.321-.105,7.281-8.459,11.075,1.791,1.331,4.013,3.788,5.8,8.3a1.229,1.229,0,0,1-1.141,1.68ZM2473.706,236.4c.356,1.875,1.873,5.763,8.259,8.464,6.545-2.2,8.264-6.356,8.715-8.395a11.434,11.434,0,0,0-7.8,3.3,1.156,1.156,0,0,1-.9.358,1.228,1.228,0,0,1-.879-.4A10.125,10.125,0,0,0,2473.706,236.4Z" transform="translate(-2471.144 -233.952)" fill="#1c223f"/>
      </g>
      <g id="Group_14" data-name="Group 14" transform="translate(7.232 88.368)">
        <path id="Path_14" data-name="Path 14" d="M2522.936,274.81c-3.758,0-6.135-1.826-8.231-3.436-2.047-1.572-3.979-3.056-7.244-3.056-3.152,0-4.712,1.334-6.518,2.88-1.98,1.693-4.223,3.613-8.5,3.613-3.758,0-6.423-1.945-8.774-3.662-2.082-1.518-3.879-2.83-6.187-2.83a8.1,8.1,0,0,0-4.17,1.342,1.535,1.535,0,0,1-1.57-2.638,11.15,11.15,0,0,1,5.74-1.774c3.309,0,5.692,1.74,8,3.421,2.164,1.579,4.207,3.071,6.964,3.071,3.141,0,4.7-1.332,6.5-2.875,1.982-1.7,4.228-3.617,8.514-3.617,4.307,0,6.862,1.961,9.114,3.691,1.958,1.5,3.647,2.8,6.362,2.8,2.818,0,4.823-1.511,6.948-3.11,2.208-1.663,4.492-3.383,7.7-3.383a10.8,10.8,0,0,1,6.024,2.011,1.535,1.535,0,1,1-1.693,2.562,7.741,7.741,0,0,0-4.332-1.5c-2.18,0-3.881,1.281-5.851,2.764C2529.41,272.829,2526.781,274.81,2522.936,274.81Z" transform="translate(-2470.995 -265.247)" fill="#1c223f"/>
      </g>
      <g id="Group_15" data-name="Group 15" transform="translate(2 73.827)">
        <path id="Path_15" data-name="Path 15" d="M2522.59,259.632c-3.777,0-6.157-1.919-8.258-3.613-2.131-1.717-3.97-3.2-7.215-3.2-3.153,0-4.8,1.409-6.714,3.041-2.068,1.768-4.415,3.771-8.688,3.771-3.8,0-6.364-2.056-8.629-3.869-1.971-1.579-3.675-2.944-5.945-2.944-2.889,0-5.78,1.553-9.1,4.887a1.535,1.535,0,1,1-2.176-2.166c3.879-3.9,7.566-5.791,11.275-5.791,3.347,0,5.643,1.838,7.863,3.616,2.052,1.643,3.991,3.2,6.71,3.2,3.141,0,4.787-1.407,6.7-3.037,2.073-1.77,4.422-3.776,8.707-3.776,4.328,0,6.886,2.061,9.142,3.879,1.953,1.574,3.638,2.933,6.332,2.933,2.8,0,4.8-1.582,6.921-3.257,2.213-1.748,4.5-3.555,7.727-3.555,4.683,0,8.686,3.331,11.22,6.126a1.536,1.536,0,0,1-2.276,2.063c-2.116-2.336-5.387-5.119-8.945-5.119-2.159,0-3.857,1.342-5.823,2.895C2529.09,257.551,2526.455,259.632,2522.59,259.632Z" transform="translate(-2465.42 -249.75)" fill="#1c223f"/>
      </g>
      <g id="Group_16" data-name="Group 16" transform="translate(6.249)">
        <circle id="Ellipse_2" data-name="Ellipse 2" cx="9.904" cy="9.904" r="9.904" transform="translate(1.228 1.228)" fill="#ffc810"/>
        <path id="Path_16" data-name="Path 16" d="M2481.079,193.337a11.131,11.131,0,1,1,11.132-11.132A11.144,11.144,0,0,1,2481.079,193.337Zm0-19.807a8.676,8.676,0,1,0,8.676,8.675A8.685,8.685,0,0,0,2481.079,173.53Z" transform="translate(-2469.948 -171.074)" fill="#1c223f"/>
      </g>
    </g>
    <g id="Group_20" data-name="Group 20" transform="translate(2576.915 188.19)">
      <g id="Group_18" data-name="Group 18">
        <path id="Path_17" data-name="Path 17" d="M2600.344,222.464a10.281,10.281,0,0,0-.667-1.811,12.306,12.306,0,0,0-1.052-1.754c-.519-.732-1.14-1.549-1.847-2.429-.722-.9-1.454-1.77-2.175-2.6q-1.107-1.27-2.083-2.376a15.938,15.938,0,0,1-1.458-1.856,4.651,4.651,0,0,1-.88-1.773,9.087,9.087,0,0,1-.2-2.013V197.91c0-2,.967-3.06,2.8-3.06a2.538,2.538,0,0,1,2.162.886,3.666,3.666,0,0,1,.637,2.239v7.294a2.545,2.545,0,1,0,5.081,0V197.91c0-2.917-.6-5.107-1.793-6.507s-3.229-2.09-6.087-2.09c-5.654,0-8.4,2.811-8.4,8.6v8.01a16.709,16.709,0,0,0,.351,3.782,9.307,9.307,0,0,0,1.236,2.852,23.828,23.828,0,0,0,1.577,2.125q1.009,1.237,2.083,2.538t2.113,2.5c.708.822,1.266,1.5,1.7,2.063a10.176,10.176,0,0,1,1.537,2.578,9.038,9.038,0,0,1,.405,2.987v7.62c0,2.044-.991,3.124-2.865,3.124a2.631,2.631,0,0,1-2.189-.879,3.521,3.521,0,0,1-.676-2.245v-8.923a2.431,2.431,0,0,0-2.6-2.606,2.657,2.657,0,0,0-1.937.709,2.486,2.486,0,0,0-.733,1.9v8.923c0,2.787.657,4.942,1.953,6.4s3.414,2.192,6.319,2.192,5.015-.737,6.283-2.19,1.923-3.62,1.923-6.406v-7.685a24.98,24.98,0,0,0-.129-2.707A14.584,14.584,0,0,0,2600.344,222.464Z" transform="translate(-2584.379 -189.314)" fill="#191d39"/>
        <path id="Path_18" data-name="Path 18" d="M2615.275,189.314c-5.567,0-8.272,2.9-8.272,8.857v36.534c0,5.96,2.706,8.857,8.272,8.857,5.609,0,8.335-2.9,8.335-8.857V198.171C2623.61,192.211,2620.884,189.314,2615.275,189.314Zm2.864,45.391c0,2.8-1.558,3.385-2.864,3.385-1.278,0-2.8-.587-2.8-3.385V198.171c0-2.745,1.522-3.321,2.8-3.321,1.306,0,2.864.576,2.864,3.321Z" transform="translate(-2585.773 -189.314)" fill="#191d39"/>
        <path id="Path_19" data-name="Path 19" d="M2642.378,237.516h-6.447V192.257a2.739,2.739,0,1,0-5.473,0v47.411a3.1,3.1,0,0,0,3.322,3.322h8.6a2.739,2.739,0,1,0,0-5.473Z" transform="translate(-2587.219 -189.327)" fill="#191d39"/>
        <path id="Path_20" data-name="Path 20" d="M2662.867,189.521a2.548,2.548,0,0,0-2.737,2.736v42.461c0,2.8-1.522,3.385-2.8,3.385s-2.8-.587-2.8-3.385V192.257a2.74,2.74,0,1,0-5.473,0v42.461c0,5.961,2.705,8.857,8.272,8.857s8.271-2.9,8.271-8.857V192.257a2.547,2.547,0,0,0-2.735-2.736Z" transform="translate(-2588.365 -189.327)" fill="#191d39"/>
        <path id="Path_21" data-name="Path 21" d="M2685.956,237.413h-8.476l.083-.325,10.391-40.416.189-.86a6.72,6.72,0,0,0,.125-.876c.021-.3.042-.649.064-1.039s.033-.9.033-1.547a2.307,2.307,0,0,0-2.41-2.411h-11.4a2.672,2.672,0,1,0,0,5.342h8.413l-10.7,40.182c-.084.381-.16.719-.226,1s-.118.58-.158.887a8.64,8.64,0,0,0-.064,1.139v1.726a2.648,2.648,0,0,0,2.8,2.8h11.332a2.8,2.8,0,1,0,0-5.6Z" transform="translate(-2589.768 -189.352)" fill="#191d39"/>
        <path id="Path_22" data-name="Path 22" d="M2697.6,189.521a2.547,2.547,0,0,0-2.737,2.736v48.387a2.672,2.672,0,0,0,.739,2,2.715,2.715,0,0,0,2,.738,2.545,2.545,0,0,0,2.735-2.736V192.257a2.546,2.546,0,0,0-2.735-2.736Z" transform="translate(-2591.189 -189.327)" fill="#191d39"/>
        <path id="Path_23" data-name="Path 23" d="M2714.933,189.314c-5.566,0-8.271,2.9-8.271,8.857v36.534c0,5.96,2.7,8.857,8.271,8.857,5.609,0,8.336-2.9,8.336-8.857V198.171C2723.269,192.211,2720.542,189.314,2714.933,189.314Zm2.864,45.391c0,2.8-1.558,3.385-2.864,3.385-1.277,0-2.8-.587-2.8-3.385V198.171c0-2.745,1.522-3.321,2.8-3.321,1.307,0,2.864.576,2.864,3.321Z" transform="translate(-2591.917 -189.314)" fill="#191d39"/>
        <path id="Path_24" data-name="Path 24" d="M2745.866,189.521a2.591,2.591,0,0,0-1.831.641,2.2,2.2,0,0,0-.64,1.64v25.462c0,3,.044,6.09.13,9.175l-.187.053-1.376-6.512q-.587-3.253-1.335-7.193c-.49-2.579-1.038-5.581-1.628-8.927l-2.051-11.623a3.414,3.414,0,0,0-1.118-1.965,3.791,3.791,0,0,0-2.533-.752,3.329,3.329,0,0,0-2.486.9,3.157,3.157,0,0,0-.9,2.355v48.256a2.2,2.2,0,0,0,2.346,2.346,2.587,2.587,0,0,0,1.8-.64,2.286,2.286,0,0,0,.64-1.706v-22.89c0-3.765-.043-7.543-.129-11.228l.258-.059c.433,2.041,1,4.209,1.5,6.51l1.628,7.522q.88,4.071,1.921,8.988t2.344,10.908a2.983,2.983,0,0,0,3.2,2.6h.066a2.532,2.532,0,0,0,2.67-2.672V191.8a2.194,2.194,0,0,0-2.28-2.281Z" transform="translate(-2593.349 -189.327)" fill="#191d39"/>
        <path id="Path_25" data-name="Path 25" d="M2773.017,238.6v-.009l-5.536-46.172a3.283,3.283,0,0,0-1.085-2.115,3.818,3.818,0,0,0-2.564-.783,3.683,3.683,0,0,0-2.529.781,3.352,3.352,0,0,0-1.055,2.122l-5.992,46.3c-.086.516-.141.914-.162,1.192s-.032.518-.032.729a2.471,2.471,0,0,0,.816,2.047,2.608,2.608,0,0,0,3.427.089,2.555,2.555,0,0,0,.971-1.784l.81-6.277h7.036l.744,6.22a2.336,2.336,0,0,0,.963,1.835,2.738,2.738,0,0,0,3.534-.087,2.505,2.505,0,0,0,.847-2.108c0-.211-.011-.454-.032-.73S2773.1,239.147,2773.017,238.6Zm-12.413-8.9.039-.293c.515-3.9,1.008-7.993,1.466-12.173s.884-8.412,1.269-12.565h.517c.394,4.245.81,8.441,1.236,12.468.429,4.06.89,8.189,1.368,12.273l.035.29Z" transform="translate(-2594.837 -189.327)" fill="#191d39"/>
      </g>
      <g id="Group_19" data-name="Group 19" transform="translate(1.324 70.356)">
        <path id="Path_26" data-name="Path 26" d="M2585.8,264.291h5.305l.006.006v1.3h-4.015v2.991h3.179l.007.008v1.283l-.007.006h-3.179v2.991h4.015v1.3l-.006.008H2585.8l-.007-.008V264.3Z" transform="translate(-2585.79 -264.291)" fill="#37a065"/>
        <path id="Path_27" data-name="Path 27" d="M2593.64,264.291h1.4l4.739,7.06.432.654h.007v-7.694l.02-.021h1.27l.02.021v9.841l-.02.021h-1.4q-.366-.514-2.694-4.023l-2.5-3.7v7.7l-.013.021h-1.263l-.02-.021v-9.841Z" transform="translate(-2586.272 -264.291)" fill="#37a065"/>
        <path id="Path_28" data-name="Path 28" d="M2604.678,264.291h5.306l.006.006v1.3h-4.016v2.991h3.179l.006.008v1.283l-.006.006h-3.179v2.991h4.016v1.3l-.006.008h-5.306l-.008-.008V264.3Z" transform="translate(-2586.953 -264.291)" fill="#37a065"/>
        <path id="Path_29" data-name="Path 29" d="M2612.521,264.291h3.253a3.5,3.5,0,0,1,2.659,1.174,3.2,3.2,0,0,1,.777,2.079,3.146,3.146,0,0,1-1.114,2.4,3.278,3.278,0,0,1-1.053.62q0,.035,1.323,2.289l.756,1.3-.013.013h-1.532a4.6,4.6,0,0,1-.37-.647q-1.432-2.512-1.532-2.72H2613.8v3.355l-.014.021h-1.263l-.02-.021v-9.841Zm1.277,1.317v3.88h2.038a2.152,2.152,0,0,0,1.674-.8,1.857,1.857,0,0,0,.392-1.1V267.5a1.855,1.855,0,0,0-.852-1.519,2.409,2.409,0,0,0-1.464-.391h-1.769Z" transform="translate(-2587.437 -264.291)" fill="#37a065"/>
        <path id="Path_30" data-name="Path 30" d="M2625.537,264.291h.021a4.593,4.593,0,0,1,3.321,1.418,5.107,5.107,0,0,1,.776,1.032l.074.149q-.978.512-1.161.593a3.306,3.306,0,0,0-.507-.736,3.154,3.154,0,0,0-.628-.554,3.252,3.252,0,0,0-1.875-.607,3.377,3.377,0,0,0-2.673,1.33,3.794,3.794,0,0,0-.79,2.308,3.737,3.737,0,0,0,1.214,2.775,3.328,3.328,0,0,0,4.752-.284,3.712,3.712,0,0,0,.824-1.573H2626.4l-.014-.02V268.86l.008-.006v-.014l2.693-.007h1.222l.021.021a8.541,8.541,0,0,1-.129,1.357,4.925,4.925,0,0,1-.681,1.728,4.692,4.692,0,0,1-3.976,2.234,4.68,4.68,0,0,1-3.166-1.256,5,5,0,0,1-1.578-3.679v-.027a5.009,5.009,0,0,1,1.565-3.658,4.726,4.726,0,0,1,.473-.378A4.512,4.512,0,0,1,2625.537,264.291Z" transform="translate(-2587.948 -264.291)" fill="#37a065"/>
        <path id="Path_31" data-name="Path 31" d="M2633.125,264.291h1.29l.007.006v9.869l-.007.008h-1.29l-.007-.008V264.3Z" transform="translate(-2588.707 -264.291)" fill="#37a065"/>
        <path id="Path_32" data-name="Path 32" d="M2641.373,264.291q.019,0,.587,1.451l3.429,8.424-.014.008h-1.411a1.9,1.9,0,0,1-.2-.452l-.681-1.674H2638.4l-.856,2.126h-1.4v-.008l3.416-8.43.594-1.444Zm-2.436,6.446h3.617l-1.8-4.455q-.019,0-.742,1.823Z" transform="translate(-2588.894 -264.291)" fill="#37a065"/>
        <path id="Path_33" data-name="Path 33" d="M2651.385,264.291h5.306l.005.006v1.3h-4.015v2.991h3.179l.007.008v1.283l-.007.006h-3.179v2.991h4.015v1.3l-.005.008h-5.306l-.008-.008V264.3Z" transform="translate(-2589.833 -264.291)" fill="#37a065"/>
        <path id="Path_34" data-name="Path 34" d="M2663.029,264.291h1.579q.04.039,1.761,3.908l1.817,4.05h.013l3.571-7.958h1.587l.019.021v9.841l-.019.021h-1.344l-.013-.021v-7.2h-.014l-3.213,7.182-.027.026h-1.108a2.4,2.4,0,0,1-.2-.432l-3.037-6.777h-.014v7.2l-.013.021h-1.343l-.021-.021v-9.841Z" transform="translate(-2590.55 -264.291)" fill="#37a065"/>
        <path id="Path_35" data-name="Path 35" d="M2676.687,264.291h5.3l.007.006v1.3h-4.015v2.991h3.178l.007.008v1.283l-.007.006h-3.178v2.991H2682v1.3l-.007.008h-5.3l-.007-.008V264.3Z" transform="translate(-2591.393 -264.291)" fill="#37a065"/>
        <path id="Path_36" data-name="Path 36" d="M2684.516,264.291h1.289l.007.006v9.869l-.007.008h-1.289l-.007-.008V264.3Z" transform="translate(-2591.875 -264.291)" fill="#37a065"/>
        <path id="Path_37" data-name="Path 37" d="M2692.733,264.291h.021a4.631,4.631,0,0,1,3.436,1.532,5.088,5.088,0,0,1-.236,7.06,4.632,4.632,0,0,1-6.386.026,5.084,5.084,0,0,1-1.573-3.672v-.027a5.014,5.014,0,0,1,1.566-3.658l.452-.372A4.631,4.631,0,0,1,2692.733,264.291Zm-3.443,4.934a3.732,3.732,0,0,0,1.215,2.775,3.339,3.339,0,0,0,4.982-.568,3.751,3.751,0,0,0,.7-2.146V269.2a3.714,3.714,0,0,0-.966-2.5,3.325,3.325,0,0,0-5.143.216A3.8,3.8,0,0,0,2689.29,269.225Z" transform="translate(-2592.09 -264.291)" fill="#37a065"/>
        <path id="Path_38" data-name="Path 38" d="M2708.2,264.291q.02,0,.586,1.451l3.43,8.424-.014.008h-1.411a1.879,1.879,0,0,1-.2-.452l-.681-1.674h-4.692l-.856,2.126h-1.4v-.008l3.415-8.43.594-1.444Zm-2.437,6.446h3.618l-1.8-4.455q-.02,0-.742,1.823Z" transform="translate(-2593.012 -264.291)" fill="#37a065"/>
        <path id="Path_39" data-name="Path 39" d="M2714.424,264.291H2716q.039.039,1.761,3.908l1.815,4.05h.013l3.571-7.958h1.587l.019.021v9.841l-.019.021h-1.344l-.013-.021v-7.2h-.014l-3.213,7.182-.027.026h-1.107a2.305,2.305,0,0,1-.2-.432l-3.038-6.777h-.013v7.2l-.013.021h-1.344l-.02-.021v-9.841Z" transform="translate(-2593.718 -264.291)" fill="#37a065"/>
        <path id="Path_40" data-name="Path 40" d="M2728.095,264.291h3.267a3.163,3.163,0,0,1,2.5,1.059,2.307,2.307,0,0,1,.5,1.484v.143a2.5,2.5,0,0,1-.865,1.917v.013a2.385,2.385,0,0,1,1.182,2.038v.486a2.632,2.632,0,0,1-1.249,2.255,2.712,2.712,0,0,1-.79.338,3.8,3.8,0,0,1-1.208.148h-3.342l-.02-.021v-9.841Zm1.277,5.393v3.18h2.248a1.711,1.711,0,0,0,1.632-.851,1.666,1.666,0,0,0,.135-.716v-.236a1.207,1.207,0,0,0-.9-1.208,2.721,2.721,0,0,0-1.074-.19h-2.018Zm.013-4.1v2.78h1.884a1.785,1.785,0,0,0,1.68-.844,1.1,1.1,0,0,0,.114-.465v-.3q0-.743-1.038-1.073a3.036,3.036,0,0,0-.857-.094Z" transform="translate(-2594.56 -264.291)" fill="#37a065"/>
        <path id="Path_41" data-name="Path 41" d="M2737.148,264.291h1.289l.007.006v9.869l-.007.008h-1.289l-.008-.008V264.3Z" transform="translate(-2595.118 -264.291)" fill="#37a065"/>
        <path id="Path_42" data-name="Path 42" d="M2741.158,264.291h5.305l.006.006v1.3h-4.016v2.991h3.18l.007.008v1.283l-.007.006h-3.18v2.991h4.016v1.3l-.006.008h-5.305l-.008-.008V264.3Z" transform="translate(-2595.366 -264.291)" fill="#37a065"/>
        <path id="Path_43" data-name="Path 43" d="M2749,264.291h1.4l4.739,7.06.432.654h.007v-7.694l.02-.021h1.269l.02.021v9.841l-.02.021h-1.4q-.365-.514-2.693-4.023l-2.5-3.7v7.7l-.013.021H2749l-.02-.021v-9.841Z" transform="translate(-2595.848 -264.291)" fill="#37a065"/>
        <path id="Path_44" data-name="Path 44" d="M2758.913,264.291h6.546l.008.006v1.29l-.008.006h-2.618v8.573l-.007.008h-1.3l-.007-.008v-8.573h-2.618l-.008-.006V264.3Z" transform="translate(-2596.461 -264.291)" fill="#37a065"/>
        <path id="Path_45" data-name="Path 45" d="M2767.4,264.291h5.3l.007.006v1.3h-4.015v2.991h3.178l.007.008v1.283l-.007.006h-3.178v2.991h4.015v1.3l-.007.008h-5.3l-.008-.008V264.3Z" transform="translate(-2596.983 -264.291)" fill="#37a065"/>
      </g>
    </g>
  </g>
</svg>
