<svg xmlns="http://www.w3.org/2000/svg" width="33.951" height="34" viewBox="0 0 33.951 34">
  <path id="Path_202" data-name="Path 202" d="M857.312,388.976l-7.715-7.715a1.263,1.263,0,0,0-1.831,0l-1.308,1.307-2.616-2.615a10.942,10.942,0,0,0-.915-14.254,10.725,10.725,0,1,0-1.046,16.085L844.5,384.4l-1.308,1.307a1.265,1.265,0,0,0,0,1.831l7.716,7.715a4.419,4.419,0,0,0,6.277,0A4.384,4.384,0,0,0,857.312,388.976Zm-27.723-9.939a8.209,8.209,0,0,1,0-11.507,8.209,8.209,0,0,1,11.507,0,8.137,8.137,0,1,1-11.507,11.507Zm25.892,14.385a1.987,1.987,0,0,1-2.616,0l-6.8-6.8,2.615-2.615,6.8,6.8A1.989,1.989,0,0,1,855.482,393.423Z" transform="translate(-824.62 -362.561)" fill="#272749"/>
</svg>
