<svg xmlns="http://www.w3.org/2000/svg" width="304.838" height="304.333" viewBox="0 0 304.838 304.333">
  <g id="Selo_de_qualidade_soluziona" transform="translate(-2898.802 -366.843)">
    <g id="Group_226" data-name="Group 226" transform="translate(2898.802 366.843)">
      <g id="Group_173" data-name="Group 173" transform="translate(1.479 163.844)">
        <path id="Path_89" data-name="Path 89" d="M2899.846,467.786l0-.021a8.032,8.032,0,0,1,1.761-6.28,9.03,9.03,0,0,1,1.581-1.518c.064.057.531.672,1.4,1.852a8.793,8.793,0,0,0-1.206,1.159,5.693,5.693,0,0,0,1.245,8.382,6.818,6.818,0,0,0,9.506-1.881,5.706,5.706,0,0,0,.855-3.81l-.035-.25a5.683,5.683,0,0,0-2.3-3.667,7.259,7.259,0,0,0-1.649-.879l.764-2.17.05-.005a10.987,10.987,0,0,1,1.739.841,8.08,8.08,0,0,1,1.818,12.165,9.11,9.11,0,0,1-5.578,3.038l-.072.011a9.024,9.024,0,0,1-6.241-1.356A8.058,8.058,0,0,1,2899.846,467.786Z" transform="translate(-2899.532 -458.477)" fill="#191d39"/>
        <path id="Path_90" data-name="Path 90" d="M2908.482,475.171a9.36,9.36,0,0,1-5.02-1.486,8.317,8.317,0,0,1-3.74-5.769l0-.021a8.281,8.281,0,0,1,1.806-6.448,9.152,9.152,0,0,1,1.629-1.565l.145-.1.13.114a22.693,22.693,0,0,1,1.433,1.888l.131.179-.177.132a8.525,8.525,0,0,0-1.172,1.129,5.469,5.469,0,0,0,1.209,8.054,6.594,6.594,0,0,0,9.188-1.827,5.491,5.491,0,0,0,.819-3.653l-.035-.247a5.479,5.479,0,0,0-2.215-3.524,7.088,7.088,0,0,0-1.579-.845l-.216-.072.888-2.517.191-.02.1.012a11.546,11.546,0,0,1,1.777.857,8.3,8.3,0,0,1,1.879,12.5,9.39,9.39,0,0,1-5.721,3.12l-.072.011A9.678,9.678,0,0,1,2908.482,475.171Zm-8.316-7.318a7.862,7.862,0,0,0,3.544,5.458,8.837,8.837,0,0,0,6.082,1.318l.069-.011a8.94,8.94,0,0,0,5.446-2.967,7.857,7.857,0,0,0-1.777-11.829,11.057,11.057,0,0,0-1.522-.752l-.623,1.766a8.192,8.192,0,0,1,1.488.829,5.929,5.929,0,0,1,2.4,3.82l.035.247a5.95,5.95,0,0,1-.886,3.956,7.037,7.037,0,0,1-9.817,1.956,5.911,5.911,0,0,1-1.3-8.7,9.6,9.6,0,0,1,1.073-1.066c-.671-.913-.984-1.324-1.127-1.507a9.821,9.821,0,0,0-1.373,1.361,7.842,7.842,0,0,0-1.709,6.1l-.218.054Z" transform="translate(-2899.63 -458.574)" fill="#191d39"/>
      </g>
      <g id="Group_174" data-name="Group 174" transform="translate(0 150.705)">
        <path id="Path_91" data-name="Path 91" d="M2899.216,461.349l-.288-9.456.011-.013,2.31-.068.218,7.153,5.327-.161-.171-5.666.012-.013,2.283-.07.014.014.171,5.664,5.33-.161-.216-7.159,2.308-.071.014.014.286,9.456-.013.011-17.586.534Z" transform="translate(-2898.703 -451.118)" fill="#191d39"/>
        <path id="Path_92" data-name="Path 92" d="M2899.235,461.687l-.13-.13-.014-.1-.289-9.543.12-.141.109-.014,2.532-.075.218,7.155,4.882-.148-.168-5.539.133-.13.1-.016,2.379-.073.132.13.016.1.165,5.441,4.883-.146-.216-7.159,2.627-.082.131.13.018.1.289,9.561-.141.123-.091.013Zm.021-9.49.273,9.032,17.164-.521-.272-9.032-1.876.057.217,7.159-5.777.173-.171-5.676-1.863.055.171,5.678-5.774.175-.22-7.153Z" transform="translate(-2898.802 -451.218)" fill="#191d39"/>
      </g>
      <g id="Group_175" data-name="Group 175" transform="translate(0.113 134.369)">
        <path id="Path_93" data-name="Path 93" d="M2898.99,453.68l.425-5.785a6.27,6.27,0,0,1,2.44-4.578,5.727,5.727,0,0,1,3.8-1.1,5.592,5.592,0,0,1,4.124,2.3,5.782,5.782,0,0,1,.967,1.952q.061.005,4.245-2.05l2.4-1.174.023.025-.2,2.726a8.3,8.3,0,0,1-1.2.573q-4.654,2.218-5.039,2.368l-.248,3.336,5.968.439.034.029-.166,2.245-.038.032-17.5-1.293Zm2.51-2.1,6.9.511.268-3.622a3.838,3.838,0,0,0-1.208-3.083,3.315,3.315,0,0,0-1.906-.841l-.156-.012a3.31,3.31,0,0,0-2.812,1.313,4.3,4.3,0,0,0-.887,2.554l-.234,3.145Z" transform="translate(-2898.767 -441.974)" fill="#191d39"/>
        <path id="Path_94" data-name="Path 94" d="M2916.606,455.332l-17.586-1.3-.127-.134-.029-.136.426-5.785a6.507,6.507,0,0,1,2.524-4.735,5.972,5.972,0,0,1,3.956-1.154,5.845,5.845,0,0,1,4.285,2.381,6.779,6.779,0,0,1,.94,1.783c.406-.189,1.472-.7,4-1.945l2.549-1.245.18.195.016.12-.2,2.724c-.011.164-.011.182-1.332.763-2.631,1.254-4.387,2.081-4.917,2.317l-.222,2.979,5.817.427.141.122.027.141-.173,2.336-.141.123Zm-17.281-1.727,17.125,1.266.138-1.859-6-.443.273-3.7.129-.052c.274-.111,2.152-.993,5.028-2.363.691-.3.97-.439,1.081-.5l.167-2.263-2.077,1.013a44.67,44.67,0,0,1-4.363,2.074l-.163-.016-.036-.159a5.592,5.592,0,0,0-.931-1.872,5.415,5.415,0,0,0-7.614-1.136,6.066,6.066,0,0,0-2.345,4.412Zm9.377-1.175-7.213-.534-.157-.173.241-3.24a4.535,4.535,0,0,1,.94-2.685,3.594,3.594,0,0,1,3-1.39l.157.012a3.557,3.557,0,0,1,2.031.893,4.084,4.084,0,0,1,1.288,3.27Zm-6.9-.959,6.491.482.25-3.4a3.605,3.605,0,0,0-1.141-2.911,3.093,3.093,0,0,0-1.767-.773l-.156-.012a3.068,3.068,0,0,0-2.624,1.236,4.077,4.077,0,0,0-.834,2.424Z" transform="translate(-2898.865 -442.072)" fill="#191d39"/>
      </g>
      <g id="Group_176" data-name="Group 176" transform="translate(1.379 119.678)">
        <path id="Path_95" data-name="Path 95" d="M2899.7,445.478l2.04-11.5.014-.009,2.261.4.011.014-.817,4.6,15.052,2.668.011.013-.4,2.277-.014.011-15.05-2.668-.818,4.6-.01.009-2.265-.4Z" transform="translate(-2899.474 -433.747)" fill="#191d39"/>
        <path id="Path_96" data-name="Path 96" d="M2902.142,446.221l-.105-.007-2.351-.418-.113-.148.007-.107,2.056-11.594.157-.1.1.007,2.349.416.113.148-.007.109-.777,4.378,14.918,2.643.113.148-.007.109-.42,2.363-.148.112-.107-.007-14.83-2.631-.8,4.471Zm-2.084-.813,1.847.329.82-4.61.219.037,14.842,2.633.331-1.861-15.065-2.668.818-4.61-1.847-.329Z" transform="translate(-2899.574 -433.847)" fill="#191d39"/>
      </g>
      <g id="Group_177" data-name="Group 177" transform="translate(4.385 113.703)">
        <path id="Path_97" data-name="Path 97" d="M2901.388,432.873l.563-2.231.013-.009,17.063,4.3.009.014-.562,2.229-.016.011-17.059-4.306Z" transform="translate(-2901.155 -430.399)" fill="#191d39"/>
        <path id="Path_98" data-name="Path 98" d="M2918.618,437.525l-.112-.014-17.142-4.326-.107-.152.018-.111.583-2.311.152-.109.111.018,17.15,4.326.1.157-.013.105-.583,2.313Zm-16.859-4.7,16.65,4.2.459-1.82-16.651-4.2Z" transform="translate(-2901.257 -430.502)" fill="#191d39"/>
      </g>
      <g id="Group_178" data-name="Group 178" transform="translate(6.446 99.211)">
        <path id="Path_99" data-name="Path 99" d="M2902.541,431.509l2.963-8.984.017-.007,2.18.72.011.016-2.242,6.789,5.062,1.67,1.822-5.521,2.195.725-1.822,5.519,7.261,2.4.005.014-.721,2.184-.015.007-16.709-5.512Z" transform="translate(-2902.308 -422.286)" fill="#191d39"/>
        <path id="Path_100" data-name="Path 100" d="M2919.392,437.374l-.1-.022-16.8-5.544-.075-.168.02-.1,3-9.079.167-.075.1.02,2.254.745.1.155-.021.118L2905.855,430l4.638,1.529,1.822-5.521,2.619.866-1.822,5.519,7.135,2.354.082.166-.02.1-.752,2.274Zm-16.471-5.892,16.309,5.378.588-1.781-7.27-2.4,1.82-5.521-1.77-.582-1.822,5.519-5.487-1.811,2.245-6.8-1.781-.589Z" transform="translate(-2902.411 -422.388)" fill="#191d39"/>
      </g>
      <g id="Group_179" data-name="Group 179" transform="translate(11.022 93.154)">
        <path id="Path_101" data-name="Path 101" d="M2905.106,421.263l.875-2.127.014-.007,16.275,6.691.007.018-.875,2.127-.014.007-16.275-6.694Z" transform="translate(-2904.868 -418.893)" fill="#191d39"/>
        <path id="Path_102" data-name="Path 102" d="M2921.51,428.312l-.1-.03-16.35-6.725-.084-.166.032-.107.908-2.211.17-.075.1.03,16.361,6.725.07.173-.029.1-.907,2.209Zm-16.01-7.055,15.882,6.532.715-1.738-15.886-6.532Z" transform="translate(-2904.973 -418.997)" fill="#191d39"/>
      </g>
      <g id="Group_180" data-name="Group 180" transform="translate(16.751 76.666)">
        <path id="Path_103" data-name="Path 103" d="M2909.2,414.277l.011-.021a8.027,8.027,0,0,1,5.106-4.056,9.066,9.066,0,0,1,2.168-.307c.018.084.034.856.052,2.322a8.618,8.618,0,0,0-1.658.234,5.691,5.691,0,0,0-3.9,7.521,6.81,6.81,0,0,0,8.8,4.04,5.69,5.69,0,0,0,2.928-2.585l.116-.227a5.673,5.673,0,0,0,.286-4.315,7.543,7.543,0,0,0-.822-1.681l1.892-1.307.042.025a10.9,10.9,0,0,1,.917,1.7,8.079,8.079,0,0,1-5.649,10.928,9.12,9.12,0,0,1-6.3-.8l-.064-.034a9.031,9.031,0,0,1-4.27-4.753A8.073,8.073,0,0,1,2909.2,414.277Z" transform="translate(-2908.084 -409.667)" fill="#191d39"/>
        <path id="Path_104" data-name="Path 104" d="M2917.48,427.1a9.175,9.175,0,0,1-4.29-1.057l-.063-.032a9.282,9.282,0,0,1-4.372-4.869,8.323,8.323,0,0,1,.345-6.868l.016-.029a8.275,8.275,0,0,1,5.237-4.16,8.964,8.964,0,0,1,2.235-.316l.173,0,.042.168c.018.075.032.305.057,2.37l0,.221-.22.005a8.416,8.416,0,0,0-1.613.229,5.464,5.464,0,0,0-3.736,7.234,6.591,6.591,0,0,0,8.516,3.9,5.5,5.5,0,0,0,2.806-2.477l.114-.227a5.476,5.476,0,0,0,.27-4.151,7.262,7.262,0,0,0-.79-1.611l-.13-.186,2.193-1.516.238.163a10.854,10.854,0,0,1,.938,1.736,8.306,8.306,0,0,1-5.794,11.233A10.316,10.316,0,0,1,2917.48,427.1Zm-8.182-12.723.2.1a7.893,7.893,0,0,0-.323,6.5,8.859,8.859,0,0,0,4.16,4.631l.064.03a8.929,8.929,0,0,0,6.149.786,7.861,7.861,0,0,0,5.488-10.633,10.691,10.691,0,0,0-.793-1.5l-1.541,1.066a8.463,8.463,0,0,1,.723,1.541,5.921,5.921,0,0,1-.3,4.5l-.116.227a5.934,5.934,0,0,1-3.036,2.688,7.041,7.041,0,0,1-9.1-4.165,5.917,5.917,0,0,1,4.042-7.814,9.756,9.756,0,0,1,1.5-.236c-.007-.532-.019-1.479-.034-1.883a9.78,9.78,0,0,0-1.91.3,7.848,7.848,0,0,0-4.959,3.944Z" transform="translate(-2908.18 -409.766)" fill="#191d39"/>
      </g>
      <g id="Group_181" data-name="Group 181" transform="translate(26.881 63.942)">
        <path id="Path_105" data-name="Path 105" d="M2915.247,402.761c.016-.02.922.191,2.725.625l15.813,3.592,0,.029-1.441,2.061a3.382,3.382,0,0,1-.861-.175l-3.144-.714-4.791,6.857,2.233,3.424-1.427,2.042-.009-.007-8.834-13.6-1.5-2.342Zm6.936,10.147,3.694-5.287-8.352-1.918q-.019.032,1.905,2.951Z" transform="translate(-2913.734 -402.55)" fill="#191d39"/>
        <path id="Path_106" data-name="Path 106" d="M2924.513,420.914l-.241-.207-10.42-16.072,1.341-1.924c.1-.132.107-.136,2.947.548l16.023,3.64-.082.325-1.443,2.061c-.1.152-.193.147-1.1-.086l-2.989-.679-4.621,6.609,2.233,3.424Zm-10.125-16.268,1.423,2.217,8.661,13.333,1.152-1.649-2.233-3.424.085-.123,4.878-6.98,3.288.745c.406.105.6.148.7.164l1.2-1.713-15.5-3.52c-.727-.175-2.149-.516-2.568-.6Zm7.905,8.752-2.933-4.531c-2-3.033-2-3.033-1.913-3.183l.084-.143,8.836,2.029Zm-4.188-7.268c.257.4.743,1.147,1.629,2.492l2.574,3.978,3.313-4.744Z" transform="translate(-2913.852 -402.642)" fill="#191d39"/>
      </g>
      <g id="Group_182" data-name="Group 182" transform="translate(35.364 48.123)">
        <path id="Path_107" data-name="Path 107" d="M2918.727,400.207l3.078-3.4a8.841,8.841,0,0,1,5.46-2.835,9.661,9.661,0,0,1,1.865-.03,8.666,8.666,0,0,1,5.074,2.2l.1.089a8.736,8.736,0,0,1,2.844,6.182,9.287,9.287,0,0,1-.558,3.378,8.8,8.8,0,0,1-1.661,2.765l-3.153,3.478-.053,0-12.992-11.774Zm3.274-.118,9.588,8.688,1.422-1.572a6.581,6.581,0,0,0,1.757-5.308,6.415,6.415,0,0,0-6.292-5.657,6.831,6.831,0,0,0-3.442.9,7.867,7.867,0,0,0-1.8,1.552L2922,400.054Z" transform="translate(-2918.502 -393.688)" fill="#191d39"/>
        <path id="Path_108" data-name="Path 108" d="M2931.79,412.355l-.12-.059-13.058-11.835-.01-.186.059-.12,3.077-3.4a9.114,9.114,0,0,1,5.594-2.906,9.885,9.885,0,0,1,1.929-.03,8.911,8.911,0,0,1,5.193,2.252l.1.087a8.991,8.991,0,0,1,2.918,6.334,9.575,9.575,0,0,1-.573,3.474,9.08,9.08,0,0,1-1.7,2.833l-3.216,3.547Zm-12.673-12.039,12.718,11.524,3.026-3.34a8.572,8.572,0,0,0,1.618-2.7,9.1,9.1,0,0,0,.543-3.3,8.538,8.538,0,0,0-2.771-6.016l-.1-.089a8.5,8.5,0,0,0-4.949-2.14,8.994,8.994,0,0,0-1.824.032,8.65,8.65,0,0,0-5.312,2.761Zm12.585,8.874-9.819-8.893-.019-.221,1.3-1.438a8.138,8.138,0,0,1,1.852-1.6,6.31,6.31,0,0,1,1.586-.664,6.222,6.222,0,0,1,1.963-.263,6.638,6.638,0,0,1,6.52,5.848,6.826,6.826,0,0,1-1.815,5.49Zm-9.307-9.034,9.277,8.4,1.272-1.406a6.4,6.4,0,0,0,1.7-5.135,6.192,6.192,0,0,0-6.078-5.457,5.963,5.963,0,0,0-1.829.241,6.321,6.321,0,0,0-1.5.629,7.571,7.571,0,0,0-1.738,1.506Z" transform="translate(-2918.601 -393.786)" fill="#191d39"/>
      </g>
      <g id="Group_183" data-name="Group 183" transform="translate(51.254 33.739)">
        <path id="Path_109" data-name="Path 109" d="M2930.537,387.8l.027-.023a8.262,8.262,0,0,1,6.442-1.863,9.076,9.076,0,0,1,7.8,9.9,8.265,8.265,0,0,1-8.674,7.379,9.2,9.2,0,0,1-2.25-.43,8.9,8.9,0,0,1-4.114-2.767l-.03-.036a8.935,8.935,0,0,1-2.072-6.789l.191-1.025A8.224,8.224,0,0,1,2930.537,387.8Zm.981,10.681a6.639,6.639,0,0,0,4.846,2.385,5.952,5.952,0,0,0,6.135-6.5,6.657,6.657,0,0,0-1.511-3.731l-.1-.122a6.631,6.631,0,0,0-4.189-2.293,5.93,5.93,0,0,0-6.761,6.209A6.789,6.789,0,0,0,2931.518,398.481Z" transform="translate(-2927.399 -385.634)" fill="#191d39"/>
        <path id="Path_110" data-name="Path 110" d="M2936.506,403.513c-.095,0-.189,0-.284,0a9.291,9.291,0,0,1-2.332-.448,9.118,9.118,0,0,1-4.2-2.829,9.224,9.224,0,0,1-2.156-6.986l.194-1.048a8.473,8.473,0,0,1,2.754-4.465l.024-.021a8.515,8.515,0,0,1,6.617-1.92,9.3,9.3,0,0,1,8,10.135,8.625,8.625,0,0,1-2.958,5.589A8.534,8.534,0,0,1,2936.506,403.513Zm-.476-17.334a7.868,7.868,0,0,0-5.224,1.868l-.029.023a8.031,8.031,0,0,0-2.61,4.224l-.187,1.013a8.859,8.859,0,0,0,6.066,9.334,8.914,8.914,0,0,0,2.2.423,8.044,8.044,0,0,0,8.43-7.189,8.849,8.849,0,0,0-7.609-9.642A9.814,9.814,0,0,0,2936.031,386.178Zm.529,15.009h-.1a6.887,6.887,0,0,1-5.013-2.463h0a7.031,7.031,0,0,1-1.631-4.183,6.149,6.149,0,0,1,7.007-6.444,6.884,6.884,0,0,1,4.337,2.37l.1.123a6.915,6.915,0,0,1,1.56,3.853,6.168,6.168,0,0,1-6.258,6.744Zm-.541-12.687a5.617,5.617,0,0,0-3.724,1.311,5.763,5.763,0,0,0-2.034,4.715,6.583,6.583,0,0,0,1.525,3.908v0a6.458,6.458,0,0,0,4.69,2.3c.031,0,.063,0,.091,0a5.73,5.73,0,0,0,5.806-6.269,6.445,6.445,0,0,0-1.458-3.6l-.1-.123a6.439,6.439,0,0,0-4.049-2.217C2936.51,388.513,2936.26,388.5,2936.019,388.5Z" transform="translate(-2927.498 -385.732)" fill="#191d39"/>
      </g>
      <g id="Group_184" data-name="Group 184" transform="translate(71.397 19.545)">
        <path id="Path_111" data-name="Path 111" d="M2938.924,381.324l3.985-2.268a8.814,8.814,0,0,1,6.069-.988,9.4,9.4,0,0,1,1.784.552,8.623,8.623,0,0,1,4.135,3.669l.065.114a8.724,8.724,0,0,1,.774,6.759,9.223,9.223,0,0,1-1.583,3.036,8.688,8.688,0,0,1-2.442,2.109l-4.078,2.32-.048-.014-8.677-15.237Zm3.151.909,6.4,11.245,1.842-1.048a6.591,6.591,0,0,0,3.326-4.5,6.417,6.417,0,0,0-4.217-7.337,6.077,6.077,0,0,0-1.908-.354,6.26,6.26,0,0,0-1.639.13,7.884,7.884,0,0,0-2.194.918l-1.6.911Z" transform="translate(-2938.669 -377.688)" fill="#191d39"/>
        <path id="Path_112" data-name="Path 112" d="M2947.77,396.966l-.177-.052-.095-.093-8.723-15.32.052-.177.093-.1,3.987-2.268a9.063,9.063,0,0,1,6.216-1.015,9.723,9.723,0,0,1,1.849.572,8.878,8.878,0,0,1,4.228,3.758l.066.113a8.989,8.989,0,0,1,.794,6.927,9.589,9.589,0,0,1-1.625,3.124,8.984,8.984,0,0,1-2.5,2.159Zm-8.468-15.443,8.491,14.916,3.917-2.227a8.55,8.55,0,0,0,2.379-2.058,9.125,9.125,0,0,0,1.541-2.965,8.546,8.546,0,0,0-.753-6.58l-.067-.113a8.445,8.445,0,0,0-4.033-3.576,8.94,8.94,0,0,0-1.745-.539,8.648,8.648,0,0,0-5.907.965Zm9.193,12.358-.111-.195-6.441-11.32.046-.211,1.688-.961a8.163,8.163,0,0,1,2.256-.941,7.1,7.1,0,0,1,3.66.227,6.645,6.645,0,0,1,4.372,7.591,6.834,6.834,0,0,1-3.437,4.651Zm-6.021-11.488,6.189,10.878,1.646-.936a6.4,6.4,0,0,0,3.219-4.351,6.2,6.2,0,0,0-4.076-7.08,5.272,5.272,0,0,0-1.814-.339,6.233,6.233,0,0,0-1.617.127,7.816,7.816,0,0,0-2.12.891Z" transform="translate(-2938.775 -377.786)" fill="#191d39"/>
      </g>
      <g id="Group_185" data-name="Group 185" transform="translate(87.931 10.322)">
        <path id="Path_113" data-name="Path 113" d="M2948.171,376.486l8.693-3.731.018.005.911,2.124-6.58,2.826,2.1,4.9,5.208-2.238.016.007.9,2.1,0,.016-5.208,2.236,2.1,4.9,6.582-2.824.911,2.125-.006.012-8.693,3.733-.018-.007-6.941-16.166Z" transform="translate(-2947.927 -372.517)" fill="#191d39"/>
        <path id="Path_114" data-name="Path 114" d="M2955.23,393.025l-.171-.07-.053-.093-6.973-16.241.053-.177.1-.059,8.767-3.763.178.055.059.1,1,2.329-.206.089-6.375,2.736,1.927,4.49,5.094-2.19.17.075.05.089.939,2.19-.075.17-.089.05-5,2.149,1.928,4.487,6.58-2.824,1.034,2.413-.064.171-.091.054Zm-6.673-16.313,6.775,15.782,8.305-3.565-.74-1.725-6.58,2.824-.089-.2-2.19-5.1,5.219-2.242-.736-1.713-5.219,2.242-2.279-5.31.2-.089,6.376-2.736-.74-1.725Z" transform="translate(-2948.032 -372.622)" fill="#191d39"/>
      </g>
      <g id="Group_186" data-name="Group 186" transform="translate(109.787 4.084)">
        <path id="Path_115" data-name="Path 115" d="M2966.652,369.493l.025-.005a8.075,8.075,0,0,1,6.455,1.179,8.868,8.868,0,0,1,3.094,10.978l2.368,1.393.007.023L2977.449,385l-2.439-1.424a8.046,8.046,0,0,1-10.167,1.831,9.144,9.144,0,0,1-1.8-1.359,8.738,8.738,0,0,1-2.386-4.212l-.013-.048a8.74,8.74,0,0,1,1.147-6.844l.605-.816A8.108,8.108,0,0,1,2966.652,369.493Zm-3.8,9.783a6.5,6.5,0,0,0,3.2,4.2,5.805,5.805,0,0,0,6.941-1.059l0-.011-1.653-.984,1.149-1.952,1.754,1.009a6.359,6.359,0,0,0,.317-3.942l-.035-.152a6.453,6.453,0,0,0-2.655-3.826,5.806,5.806,0,0,0-8.638,2.474A6.648,6.648,0,0,0,2962.855,379.276Z" transform="translate(-2960.173 -369.032)" fill="#191d39"/>
        <path id="Path_116" data-name="Path 116" d="M2968.954,386.786a8.681,8.681,0,0,1-4.121-1.086,9.519,9.519,0,0,1-1.856-1.406,9.13,9.13,0,0,1-1.277-11.37l.616-.832a8.366,8.366,0,0,1,4.38-2.717l.031-.007a8.325,8.325,0,0,1,6.623,1.209,9.062,9.062,0,0,1,3.722,5.371,8.962,8.962,0,0,1-.468,5.7l2.274,1.338.055.177-.044.107-1.265,2.131-2.472-1.443a8.283,8.283,0,0,1-4.251,2.588A8.185,8.185,0,0,1,2968.954,386.786Zm-2.206-17.2.053.216a7.939,7.939,0,0,0-4.138,2.563l-.593.8a8.673,8.673,0,0,0,1.23,10.811,9.181,9.181,0,0,0,1.756,1.331,7.821,7.821,0,0,0,9.879-1.79l.123-.141,2.408,1.407.932-1.57-2.361-1.39.08-.182a8.637,8.637,0,0,0-3.019-10.7,7.887,7.887,0,0,0-6.275-1.147Zm2.19,14.911a6.291,6.291,0,0,1-2.888-.731,6.748,6.748,0,0,1-3.317-4.344,6.9,6.9,0,0,1,.391-4.381,6.164,6.164,0,0,1,4.131-3.479,6.1,6.1,0,0,1,4.832.9,6.71,6.71,0,0,1,2.751,3.964l.036.152a6.614,6.614,0,0,1-.325,4.076l-.1.241-1.787-1.029-.924,1.57,1.553.923.034.216-.079.093a6.116,6.116,0,0,1-2.89,1.654A5.966,5.966,0,0,1,2968.938,384.5Zm-5.771-5.18a6.322,6.322,0,0,0,3.1,4.06,5.576,5.576,0,0,0,6.468-.831l-1.6-.954,1.371-2.334,1.72.989a6.132,6.132,0,0,0,.216-3.565l-.035-.152a6.287,6.287,0,0,0-2.567-3.7,5.581,5.581,0,0,0-8.308,2.393A6.452,6.452,0,0,0,2963.167,379.322Z" transform="translate(-2960.269 -369.13)" fill="#191d39"/>
      </g>
      <g id="Group_187" data-name="Group 187" transform="translate(129.685 0.063)">
        <path id="Path_117" data-name="Path 117" d="M2971.571,368.421l2.24-.234.027.034,1.1,10.667a4.981,4.981,0,0,0,.956,2.783,3.514,3.514,0,0,0,2.166,1.311,4.388,4.388,0,0,0,1.043.025l1.713-.179a3.533,3.533,0,0,0,2.98-2.183,5.034,5.034,0,0,0,.276-2.376l-1.137-10.99.03-.039,2.253-.232.039.032,1.075,10.392a8.866,8.866,0,0,1-.059,3.053,6.008,6.008,0,0,1-2.066,3.4,6.4,6.4,0,0,1-3.424,1.3l-1.151.116a5.946,5.946,0,0,1-5.826-2.531,7.107,7.107,0,0,1-1.116-3.186l-1.152-11.122Z" transform="translate(-2971.307 -366.776)" fill="#191d39"/>
        <path id="Path_118" data-name="Path 118" d="M2978.884,385.67a6,6,0,0,1-3.853-1.279,6.391,6.391,0,0,1-1.309-1.4,7.366,7.366,0,0,1-1.15-3.286l-1.163-11.215.118-.143.123-.046,2.356-.246.122.143.034.1,1.1,10.668a4.832,4.832,0,0,0,.9,2.656,3.326,3.326,0,0,0,2.053,1.241,4.212,4.212,0,0,0,.969.021l1.713-.179a3.3,3.3,0,0,0,2.8-2.058,4.841,4.841,0,0,0,.257-2.258l-1.148-11.078.114-.146.127-.048,2.343-.243.143.118.048.123,1.075,10.392a8.98,8.98,0,0,1-.066,3.136,6.247,6.247,0,0,1-2.141,3.512,6.666,6.666,0,0,1-3.54,1.347l-1.15.116A8.2,8.2,0,0,1,2978.884,385.67Zm-7-16.945,1.132,10.935a6.95,6.95,0,0,0,1.081,3.088,5.731,5.731,0,0,0,5.619,2.431l1.148-.116a6.236,6.236,0,0,0,3.308-1.252,5.832,5.832,0,0,0,1.99-3.276,8.743,8.743,0,0,0,.053-2.977l-1.057-10.206-1.877.193,1.118,10.8a5.3,5.3,0,0,1-.289,2.481,3.766,3.766,0,0,1-3.165,2.322l-1.713.179a4.732,4.732,0,0,1-1.095-.025,3.759,3.759,0,0,1-2.321-1.4,5.131,5.131,0,0,1-.995-2.89l-1.083-10.481Z" transform="translate(-2971.409 -366.878)" fill="#191d39"/>
      </g>
      <g id="Group_188" data-name="Group 188" transform="translate(147.758)">
        <path id="Path_119" data-name="Path 119" d="M2991.479,367.031q.037.005.973,2.617l5.681,15.189-.023.014-2.514-.073a3.314,3.314,0,0,1-.325-.816l-1.131-3.019-8.361-.241-1.635,3.747-2.492-.07v-.014l6.517-14.852,1.135-2.544Zm-4.673,11.367,6.451.184-2.986-8.032c-.025,0-.5,1.068-1.415,3.211Z" transform="translate(-2981.429 -366.743)" fill="#191d39"/>
        <path id="Path_120" data-name="Path 120" d="M2998.2,385.174l-2.515-.073c-.187,0-.237-.111-.529-.968l-1.077-2.872-8.059-.232-1.636,3.747-2.86-.08.019-.32,7.711-17.533,2.353.066c.17.025.17.025,1.15,2.763l5.746,15.359-.212.13Zm-2.379-.516,2.09.061-5.571-14.893c-.591-1.65-.822-2.261-.909-2.476l-1.888-.054-1.073,2.406-6.39,14.562,2.015.057,1.636-3.747.152,0,8.509.247,1.186,3.158C2995.714,384.376,2995.786,384.567,2995.823,384.658Zm-2.142-5.744-7.114-.2,2.183-4.942c1.43-3.331,1.43-3.331,1.605-3.344l.166-.011Zm-6.437-.631,5.789.166-2.688-7.23c-.19.422-.54,1.225-1.184,2.727Z" transform="translate(-2981.527 -366.843)" fill="#191d39"/>
      </g>
      <g id="Group_189" data-name="Group 189" transform="translate(166.775 0.891)">
        <path id="Path_121" data-name="Path 121" d="M2994.776,367.467l2.274.321.011.013-2.138,15.137,7.565,1.07.011.012-.323,2.276-.014.009-9.853-1.39-.01-.016,2.463-17.422Z" transform="translate(-2992.076 -367.244)" fill="#191d39"/>
        <path id="Path_122" data-name="Path 122" d="M3002.323,386.627l-.093,0-9.954-1.4-.1-.155v-.1l2.476-17.515.15-.109.1,0,2.367.334.111.148,0,.105-2.108,14.916,7.429,1.05.121.141,0,.111-.339,2.379Zm-9.676-1.806,9.436,1.331.263-1.854-7.579-1.07,2.14-15.15-1.856-.261Z" transform="translate(-2992.174 -367.342)" fill="#191d39"/>
      </g>
      <g id="Group_190" data-name="Group 190" transform="translate(179.163 3.133)">
        <path id="Path_123" data-name="Path 123" d="M3002.971,368.725l2.247.486.011.014-3.719,17.2-.014.009-2.247-.486-.01-.013,3.719-17.2Z" transform="translate(-2999.01 -368.496)" fill="#191d39"/>
        <path id="Path_124" data-name="Path 124" d="M3001.652,386.762l-.1-.011-2.329-.5-.111-.148.01-.114,3.737-17.281.148-.109.113.011,2.329.5.111.148-.01.113-3.739,17.292Zm-2.049-.888,1.834.395,3.627-16.783-1.833-.4Z" transform="translate(-2999.11 -368.597)" fill="#191d39"/>
      </g>
      <g id="Group_191" data-name="Group 191" transform="translate(185.751 4.946)">
        <path id="Path_125" data-name="Path 125" d="M3008.16,369.735l4.383,1.359a8.81,8.81,0,0,1,4.867,3.756,9.176,9.176,0,0,1,.814,1.674,8.648,8.648,0,0,1,.15,5.53l-.039.127a8.725,8.725,0,0,1-4.405,5.185,9.268,9.268,0,0,1-3.3.916,8.757,8.757,0,0,1-3.213-.339l-4.479-1.391-.023-.047,5.2-16.747Zm1.488,2.918-3.833,12.357,2.024.629a6.59,6.59,0,0,0,5.556-.645,6.415,6.415,0,0,0,2.472-8.093,6.776,6.776,0,0,0-2.263-2.742,7.809,7.809,0,0,0-2.167-.975l-1.76-.545Z" transform="translate(-3002.702 -369.515)" fill="#191d39"/>
        <path id="Path_126" data-name="Path 126" d="M3010.039,388.627a8.69,8.69,0,0,1-2.586-.375l-4.571-1.42-.084-.166,0-.13,5.225-16.832.159-.091.138.005,4.381,1.361a9.034,9.034,0,0,1,5.83,5.582,8.877,8.877,0,0,1,.148,5.657l-.039.127a8.962,8.962,0,0,1-4.51,5.314,9.594,9.594,0,0,1-3.39.945C3010.507,388.618,3010.269,388.627,3010.039,388.627Zm-6.755-2.136,4.3,1.336a8.572,8.572,0,0,0,3.131.329,9.084,9.084,0,0,0,3.219-.9,8.538,8.538,0,0,0,4.285-5.048l.04-.127a8.585,8.585,0,0,0-.945-7.027,8.641,8.641,0,0,0-4.742-3.654l-4.2-1.3Zm6.773-.2a7.354,7.354,0,0,1-2.188-.345l-2.236-.695,3.926-12.657.193-.1,1.85.573a8.076,8.076,0,0,1,2.229,1.006,6.431,6.431,0,0,1,1.269,1.156,6.215,6.215,0,0,1,1.064,1.67,6.637,6.637,0,0,1-2.55,8.377A6.845,6.845,0,0,1,3010.056,386.293Zm-3.867-1.332,1.811.563a6.409,6.409,0,0,0,5.378-.625,6.189,6.189,0,0,0,2.379-7.811,5.988,5.988,0,0,0-.989-1.559,6.093,6.093,0,0,0-1.2-1.091,7.645,7.645,0,0,0-2.1-.943l-1.57-.486Z" transform="translate(-3002.798 -369.612)" fill="#191d39"/>
      </g>
      <g id="Group_192" data-name="Group 192" transform="translate(200.002 13.13)">
        <path id="Path_127" data-name="Path 127" d="M3026.745,375.244q.032.016-.12,2.788l-.659,16.206h-.027l-2.291-1.043a3.935,3.935,0,0,1,.018-.881l.132-3.217-7.612-3.467-2.963,2.817-2.268-1.031.007-.012,11.771-11.158,2.031-1.9Zm-8.716,8.661,5.873,2.674.364-8.563q-.032-.013-2.552,2.409Z" transform="translate(-3010.638 -374.078)" fill="#191d39"/>
        <path id="Path_128" data-name="Path 128" d="M3026.32,394.577l-.334-.021-2.29-1.043c-.161-.073-.177-.139-.114-1.1l.127-3.061-7.34-3.342-2.963,2.817-2.629-1.195.17-.275,13.91-13.166,2.128.968c.162.08.162.08,0,3ZM3024,393.159l1.9.866.645-15.886c.1-1.775.121-2.41.125-2.633l-1.722-.784-1.92,1.8-11.54,10.94,1.831.834,2.963-2.817,7.885,3.59-.135,3.367C3024,392.855,3024,393.059,3024,393.159Zm.253-6.125-6.477-2.945,3.928-3.71c2.6-2.5,2.608-2.538,2.784-2.456l.15.059Zm-5.687-3.079,5.269,2.4.329-7.7c-.339.314-.973.918-2.152,2.052Z" transform="translate(-3010.777 -374.194)" fill="#191d39"/>
      </g>
      <g id="Group_193" data-name="Group 193" transform="translate(217.265 19.405)">
        <path id="Path_129" data-name="Path 129" d="M3029.836,377.834l3.9,2.409a8.829,8.829,0,0,1,3.783,4.853,9.839,9.839,0,0,1,.37,1.825,8.659,8.659,0,0,1-1.237,5.391l-.07.112a8.722,8.722,0,0,1-5.562,3.922,9.226,9.226,0,0,1-3.421.064,8.744,8.744,0,0,1-3.024-1.131l-3.99-2.467-.014-.048,9.216-14.921Zm.711,3.2-6.8,11.008,1.8,1.113a6.592,6.592,0,0,0,5.541.765,6.411,6.411,0,0,0,4.417-7.218,6.123,6.123,0,0,0-.6-1.841,6.314,6.314,0,0,0-.9-1.381,7.934,7.934,0,0,0-1.854-1.484l-1.566-.968Z" transform="translate(-3020.341 -377.607)" fill="#191d39"/>
        <path id="Path_130" data-name="Path 130" d="M3029.119,396.865a7.7,7.7,0,0,1-1.465-.134,9,9,0,0,1-3.1-1.161l-4.064-2.511-.053-.179.04-.132,9.266-15,.18-.039.125.038,3.9,2.408a9.087,9.087,0,0,1,3.875,4.973,9.855,9.855,0,0,1,.382,1.89,8.908,8.908,0,0,1-1.27,5.514l-.07.114a8.987,8.987,0,0,1-5.7,4.021A11.326,11.326,0,0,1,3029.119,396.865Zm-8.159-4.044,3.833,2.368a8.474,8.474,0,0,0,2.946,1.1,8.908,8.908,0,0,0,3.34-.063,8.547,8.547,0,0,0,5.414-3.819l.069-.114a8.478,8.478,0,0,0,1.2-5.255,8.787,8.787,0,0,0-.365-1.786,8.637,8.637,0,0,0-3.681-4.721l-3.742-2.311Zm8.254,1.711a6.91,6.91,0,0,1-3.678-1.09l-1.993-1.231,6.966-11.281.216-.043,1.642,1.014a8.156,8.156,0,0,1,1.908,1.529,6.433,6.433,0,0,1,.939,1.44,6.205,6.205,0,0,1,.615,1.883,6.626,6.626,0,0,1-4.564,7.473A7.266,7.266,0,0,1,3029.214,394.532Zm-5.058-2.467,1.615,1a6.416,6.416,0,0,0,5.36.739,6.186,6.186,0,0,0,4.26-6.968,5.9,5.9,0,0,0-.572-1.758,6.224,6.224,0,0,0-.889-1.361,7.768,7.768,0,0,0-1.8-1.433l-1.4-.866Z" transform="translate(-3020.442 -377.707)" fill="#191d39"/>
      </g>
      <g id="Group_194" data-name="Group 194" transform="translate(231.354 29.605)">
        <path id="Path_131" data-name="Path 131" d="M3039.315,383.547l7.454,5.828,0,.016-1.423,1.82-5.641-4.412-3.285,4.2,4.465,3.492v.016l-1.407,1.8-.014,0L3035,392.819l-3.285,4.2,5.641,4.412-1.422,1.817-.016,0-7.452-5.825,0-.02,10.839-13.859Z" transform="translate(-3028.227 -383.317)" fill="#191d39"/>
        <path id="Path_132" data-name="Path 132" d="M3035.967,403.583l-.085-.054-7.517-5.878-.034-.184.057-.1,10.9-13.932.184-.021.088.054,7.527,5.885.021.186-.053.088-1.563,2-5.641-4.412-3.008,3.847,4.374,3.422v.186l-.046.077-1.466,1.872-.182.023-.088-.055-4.29-3.353-3.01,3.849,5.641,4.412-1.618,2.067Zm-7.1-6.1,7.119,5.566,1.156-1.474-5.642-4.412,3.562-4.553,4.472,3.5,1.148-1.468-4.475-3.5,3.561-4.551,5.642,4.41,1.154-1.477-7.118-5.566Z" transform="translate(-3028.33 -383.418)" fill="#191d39"/>
      </g>
      <g id="Group_195" data-name="Group 195" transform="translate(247.27 45.113)">
        <path id="Path_133" data-name="Path 133" d="M3052.441,394.289l.139.15a5.957,5.957,0,0,1,1.377,2.411,7.2,7.2,0,0,1,.188.966,7.711,7.711,0,0,1,.044.854,6.438,6.438,0,0,1-.128,1.052c-.046.207-.1.407-.162.6l-2.19-.807a3.034,3.034,0,0,0,.14-.763,3.905,3.905,0,0,0-3.523-4.04,2.647,2.647,0,0,0-1.822.682l-.062.061a1.517,1.517,0,0,0-.511,1.331,3.617,3.617,0,0,0,.113.625,9.619,9.619,0,0,0,.779,1.816q.434.844,1.122,1.968a7.9,7.9,0,0,1,.514,1.173,5.645,5.645,0,0,1,.225,1.131,5.261,5.261,0,0,1-.038,1.113,4.681,4.681,0,0,1-1.413,2.652l-.044.041a5.155,5.155,0,0,1-2.758,1.341,4.644,4.644,0,0,1-.888.064,6.412,6.412,0,0,1-1.154-.168,5.976,5.976,0,0,1-.895-.311,6.729,6.729,0,0,1-2.181-1.531,6.449,6.449,0,0,1-1.736-3.613c-.025-.261-.043-.547-.046-.852a7.272,7.272,0,0,1,.076-1,7.569,7.569,0,0,1,.249-1.032q.151-.439.191-.514l2.157.856a4.851,4.851,0,0,0-.28,1,3.62,3.62,0,0,0-.061.723,4.173,4.173,0,0,0,.1.945,4.125,4.125,0,0,0,1.017,1.859l.057.061a4.187,4.187,0,0,0,1.793,1.12,3.891,3.891,0,0,0,.677.12,3.037,3.037,0,0,0,.759-.057,2.881,2.881,0,0,0,1.349-.714,2.314,2.314,0,0,0,.716-2.108,3.085,3.085,0,0,0-.163-.591,6.147,6.147,0,0,0-.641-1.2,16.83,16.83,0,0,1-1.682-3.481,4.078,4.078,0,0,1,1.021-4.487,4.821,4.821,0,0,1,3.022-1.325,5.394,5.394,0,0,1,1.081.034,6.567,6.567,0,0,1,1.007.241,5.581,5.581,0,0,1,.966.443A6.6,6.6,0,0,1,3052.441,394.289Z" transform="translate(-3037.013 -391.873)" fill="#191d39"/>
        <path id="Path_134" data-name="Path 134" d="M3043.772,409.457a6.9,6.9,0,0,1-1.293-.187,6.281,6.281,0,0,1-.961-.332,7.3,7.3,0,0,1-2.354-1.652,7,7,0,0,1-1.872-3.9c-.029-.3-.049-.6-.052-.922a7.775,7.775,0,0,1,.086-1.1,8.367,8.367,0,0,1,.264-1.1,5.405,5.405,0,0,1,.23-.6l.22-.4,3.071,1.22-.2.486a4.331,4.331,0,0,0-.25.889,3.23,3.23,0,0,0-.052.636,3.425,3.425,0,0,0,.979,2.445,3.718,3.718,0,0,0,1.632,1.041,3.183,3.183,0,0,0,.566.1,2.027,2.027,0,0,0,.591-.045,2.352,2.352,0,0,0,1.111-.588,1.8,1.8,0,0,0,.561-1.659,2.664,2.664,0,0,0-.128-.468,5.565,5.565,0,0,0-.6-1.116,17.314,17.314,0,0,1-1.745-3.617,4.575,4.575,0,0,1,1.159-5.007,5.368,5.368,0,0,1,3.341-1.466,5.979,5.979,0,0,1,1.193.038,7.009,7.009,0,0,1,1.1.264,6.031,6.031,0,0,1,1.055.482,7.058,7.058,0,0,1,1.611,1.261l.005.005.139.15a6.451,6.451,0,0,1,1.493,2.611,7.472,7.472,0,0,1,.207,1.054,8.425,8.425,0,0,1,.048.913,7.351,7.351,0,0,1-.143,1.179c-.049.218-.106.43-.174.639l-.167.511-3.2-1.179.2-.5a2.365,2.365,0,0,0,.1-.613,3.388,3.388,0,0,0-3.031-3.476,1.9,1.9,0,0,0-.575.07,2.006,2.006,0,0,0-.865.47,1.072,1.072,0,0,0-.416.957,3.087,3.087,0,0,0,.1.541,9.05,9.05,0,0,0,.74,1.718c.286.559.654,1.2,1.1,1.94a8.336,8.336,0,0,1,.566,1.279,6.423,6.423,0,0,1,.246,1.238,5.865,5.865,0,0,1-.039,1.245,5.2,5.2,0,0,1-1.57,2.952,5.73,5.73,0,0,1-3.073,1.518A5.015,5.015,0,0,1,3043.772,409.457Zm-5.2-8.865v0a7.1,7.1,0,0,0-.229.957,6.822,6.822,0,0,0-.068.923c0,.273.02.543.045.791a5.867,5.867,0,0,0,1.6,3.3,6.269,6.269,0,0,0,2.014,1.416,5.75,5.75,0,0,0,.811.282,6,6,0,0,0,1.068.152,4.314,4.314,0,0,0,.738-.052,4.647,4.647,0,0,0,2.512-1.211,4.188,4.188,0,0,0,1.305-2.408,4.977,4.977,0,0,0,.03-.991,5.213,5.213,0,0,0-.2-1.007,7.357,7.357,0,0,0-.48-1.086c-.448-.734-.827-1.4-1.121-1.974a9.984,9.984,0,0,1-.82-1.918,3.993,3.993,0,0,1-.129-.713,2.015,2.015,0,0,1,.668-1.754,3.046,3.046,0,0,1,1.307-.759,2.743,2.743,0,0,1,.924-.127,4.416,4.416,0,0,1,4.051,4.589c-.012.152-.029.286-.046.4l1.23.454.007-.032a5.923,5.923,0,0,0,.118-.968,7.358,7.358,0,0,0-.042-.754,6.567,6.567,0,0,0-.176-.9,5.45,5.45,0,0,0-1.25-2.19l-.142-.15a6.042,6.042,0,0,0-1.377-1.075,4.85,4.85,0,0,0-.871-.4,5.875,5.875,0,0,0-.929-.221,4.862,4.862,0,0,0-.96-.029,4.3,4.3,0,0,0-2.7,1.186,3.57,3.57,0,0,0-.881,3.958,16.3,16.3,0,0,0,1.633,3.369,6.556,6.556,0,0,1,.686,1.3,3.933,3.933,0,0,1,.181.663,2.833,2.833,0,0,1-.868,2.581,3.33,3.33,0,0,1-2.479.915,4.52,4.52,0,0,1-.806-.139,4.623,4.623,0,0,1-3.345-4.471,4.053,4.053,0,0,1,.073-.848,5.061,5.061,0,0,1,.136-.586Z" transform="translate(-3037.241 -392.1)" fill="#191d39"/>
      </g>
      <g id="Group_196" data-name="Group 196" transform="translate(258.213 58.065)">
        <path id="Path_135" data-name="Path 135" d="M3059.414,402.975l.021.029a8.269,8.269,0,0,1,1.443,6.553A9.073,9.073,0,0,1,3050.5,416.7a8.264,8.264,0,0,1-6.8-9.131,9.044,9.044,0,0,1,3.6-6.146l.04-.027a8.933,8.933,0,0,1,6.9-1.632l1.01.255A8.261,8.261,0,0,1,3059.414,402.975Zm-10.722.293a6.64,6.64,0,0,0-2.69,4.681,5.947,5.947,0,0,0,6.089,6.543,6.655,6.655,0,0,0,3.823-1.268l.125-.093a6.626,6.626,0,0,0,2.561-4.03,5.929,5.929,0,0,0-5.762-7.146A6.774,6.774,0,0,0,3048.692,403.268Z" transform="translate(-3043.139 -399.125)" fill="#191d39"/>
        <path id="Path_136" data-name="Path 136" d="M3052.258,417.558a11.257,11.257,0,0,1-1.6-.118,8.779,8.779,0,0,1-7.242-9.69,9.578,9.578,0,0,1,3.8-6.518,9.53,9.53,0,0,1,7.331-1.754l1.061.264a8.852,8.852,0,0,1,4.449,3.149l.022.029a8.811,8.811,0,0,1,1.537,6.948,9.539,9.539,0,0,1-3.7,5.821A9.327,9.327,0,0,1,3052.258,417.558Zm.64-17.174a8.265,8.265,0,0,0-5.022,1.658,8.47,8.47,0,0,0-2.894,3.728,8.136,8.136,0,0,0-.541,2.111,7.745,7.745,0,0,0,6.4,8.538,8.378,8.378,0,0,0,6.462-1.563,8.51,8.51,0,0,0,3.3-5.183,7.705,7.705,0,0,0-1.354-6.135l.395-.334-.416.309a7.788,7.788,0,0,0-3.906-2.774l-.975-.245A9.8,9.8,0,0,0,3052.9,400.384Zm-.559,14.854a6.466,6.466,0,0,1-6.625-7.1,7.188,7.188,0,0,1,2.9-5.058h0a7.3,7.3,0,0,1,4.444-1.415h.01a6.446,6.446,0,0,1,6.275,7.748,7.21,7.21,0,0,1-2.765,4.364l-.129.093A7.209,7.209,0,0,1,3052.338,415.238Zm-3.113-11.326a6.105,6.105,0,0,0-2.482,4.333,5.391,5.391,0,0,0,1.045,3.765,5.451,5.451,0,0,0,4.543,2.192,6.14,6.14,0,0,0,3.5-1.166l.127-.093a6.089,6.089,0,0,0,2.363-3.728,5.419,5.419,0,0,0-.932-4.3,5.486,5.486,0,0,0-4.356-2.213h0a6.281,6.281,0,0,0-3.8,1.213Z" transform="translate(-3043.367 -399.352)" fill="#191d39"/>
      </g>
      <g id="Group_197" data-name="Group 197" transform="translate(266.405 72.896)">
        <path id="Path_137" data-name="Path 137" d="M3063.586,407.974l1.133,2,0,.016-13.289,7.554,3.778,6.644,0,.014-2,1.138-.018,0-4.917-8.652,0-.018,15.3-8.7Z" transform="translate(-3047.707 -407.408)" fill="#191d39"/>
        <path id="Path_138" data-name="Path 138" d="M3053.537,426.131l-.42-.084-.134-.209-5.03-8.845.123-.411.186-.12,15.49-8.807.409.125.121.184,1.232,2.174-.094.418-.2.13-12.837,7.3,3.624,6.375-.105.414-.2.125Zm-4.325-9.018,4.421,7.773,1.118-.638-3.783-6.652,13.3-7.562-.636-1.118Z" transform="translate(-3047.954 -407.655)" fill="#191d39"/>
      </g>
      <g id="Group_198" data-name="Group 198" transform="translate(274.368 85.491)">
        <path id="Path_139" data-name="Path 139" d="M3067.041,415.044l.886,2.07-.025.038-9.865,4.2a4.985,4.985,0,0,0-2.376,1.734,3.5,3.5,0,0,0-.608,2.458,4.1,4.1,0,0,0,.282,1.006l.675,1.581a3.539,3.539,0,0,0,2.967,2.2,5.018,5.018,0,0,0,2.349-.439l10.166-4.337.047.021.888,2.079-.021.048-9.609,4.1a8.852,8.852,0,0,1-2.937.847,6.016,6.016,0,0,1-3.854-.973,6.4,6.4,0,0,1-2.25-2.886l-.454-1.063a6.022,6.022,0,0,1-.216-4.712,6.139,6.139,0,0,1,.911-1.6,7.166,7.166,0,0,1,2.713-2.009l10.287-4.387Z" transform="translate(-3052.185 -414.458)" fill="#191d39"/>
        <path id="Path_140" data-name="Path 140" d="M3059.592,433.438a6.409,6.409,0,0,1-3.649-1.077,6.935,6.935,0,0,1-2.438-3.113l-.454-1.061a6.55,6.55,0,0,1-.221-5.1,6.824,6.824,0,0,1,.991-1.741,7.732,7.732,0,0,1,2.912-2.158l10.494-4.476.393.175.127.207.993,2.32-.234.366-.174.1-9.863,4.2a4.536,4.536,0,0,0-2.136,1.527,3.048,3.048,0,0,0-.536,2.149,3.742,3.742,0,0,0,.241.839l.676,1.582a3.034,3.034,0,0,0,2.565,1.9,4.566,4.566,0,0,0,2.073-.4l10.372-4.424.391.173.128.207.975,2.284-.17.393-.211.132-9.609,4.1a9.232,9.232,0,0,1-3.129.888C3059.928,433.435,3059.758,433.438,3059.592,433.438Zm7.39-17.5-9.842,4.2a6.609,6.609,0,0,0-2.521,1.866,5.644,5.644,0,0,0-.827,1.465,5.47,5.47,0,0,0,.212,4.314l.454,1.061a5.915,5.915,0,0,0,2.063,2.663,5.524,5.524,0,0,0,3.531.886,8.472,8.472,0,0,0,2.767-.807l9.168-3.91-.509-1.195-9.72,4.146a5.549,5.549,0,0,1-2.593.48,4.059,4.059,0,0,1-3.4-2.517l-.676-1.581a4.774,4.774,0,0,1-.318-1.129,4.035,4.035,0,0,1,.709-2.851,5.376,5.376,0,0,1,2.584-1.9l9.424-4.017Z" transform="translate(-3052.412 -414.707)" fill="#191d39"/>
      </g>
      <g id="Group_199" data-name="Group 199" transform="translate(278.726 104.09)">
        <path id="Path_141" data-name="Path 141" d="M3072.49,425.438l3.584,12.521-.037.007-17.4-5.385,2.724,9.522-.029.032-2.176.623-.042-.014-3.9-13.641.032-.009,17.427,5.378-2.4-8.4.015-.029,2.165-.62Z" transform="translate(-3054.569 -424.881)" fill="#191d39"/>
        <path id="Path_142" data-name="Path 142" d="M3059.426,443.54l-.409-.138-.12-.277-4.045-14.151.654-.171.175.034,16.513,5.1-2.2-7.695.218-.37.217-.088,2.324-.663.409.141.113.273L3077,438.575l-.664.159-.174-.032-16.486-5.1,2.541,8.877-.292.325-.171.073Zm-3.176-13.442,3.51,12.271,1.25-.361-2.853-9.967,17.443,5.4-3.192-11.147-1.224.35,2.531,8.845Z" transform="translate(-3054.852 -425.12)" fill="#191d39"/>
      </g>
      <g id="Group_200" data-name="Group 200" transform="translate(283.164 120.871)">
        <path id="Path_143" data-name="Path 143" d="M3074.93,434.829l.45,2.256-.01.012-17.258,3.433-.016-.007-.448-2.258.011-.012,17.256-3.433Z" transform="translate(-3057.092 -434.275)" fill="#191d39"/>
        <path id="Path_144" data-name="Path 144" d="M3058.3,441.309l-.4-.175-.068-.271-.5-2.5.279-.325.187-.048,17.442-3.47.375.209.063.245.5,2.5-.28.327-.186.046Zm.2-2.406.251,1.259,16.266-3.236-.25-1.259Z" transform="translate(-3057.337 -434.515)" fill="#191d39"/>
      </g>
      <g id="Group_201" data-name="Group 201" transform="translate(285.316 129.069)">
        <path id="Path_145" data-name="Path 145" d="M3076.4,446.973l0,.034a8.267,8.267,0,0,1-2.108,6.371,9.079,9.079,0,0,1-12.567.838,8.256,8.256,0,0,1-1.184-11.326,9.089,9.089,0,0,1,6.233-3.445l.05,0a8.951,8.951,0,0,1,6.771,2.127l.736.738A8.244,8.244,0,0,1,3076.4,446.973Zm-9.365-5.23a6.653,6.653,0,0,0-4.707,2.649,5.951,5.951,0,0,0,1.894,8.738,6.683,6.683,0,0,0,3.931.863l.158-.014a6.634,6.634,0,0,0,4.257-2.158,5.928,5.928,0,0,0-1.3-9.086A6.774,6.774,0,0,0,3067.04,441.744Z" transform="translate(-3058.315 -438.878)" fill="#191d39"/>
        <path id="Path_146" data-name="Path 146" d="M3067.757,457.1a9.535,9.535,0,0,1-6.123-2.256,8.773,8.773,0,0,1-1.275-12.031,9.236,9.236,0,0,1,1.764-1.745,9.6,9.6,0,0,1,12.035.327l.775.772a8.805,8.805,0,0,1,2.213,4.982l0,.034a8.789,8.789,0,0,1-2.227,6.757,9.513,9.513,0,0,1-6.156,3.11C3068.426,457.083,3068.091,457.1,3067.757,457.1Zm.272-16.963c-.3,0-.607.016-.916.045a8.451,8.451,0,0,0-4.39,1.733,7.973,7.973,0,0,0-1.549,1.536,7.748,7.748,0,0,0,1.136,10.61,8.56,8.56,0,0,0,11.84-.809,7.688,7.688,0,0,0,1.972-5.964l.511-.088-.514.052a7.77,7.77,0,0,0-1.942-4.38l-.712-.709A8.372,8.372,0,0,0,3068.028,440.138Zm-.266,14.63a7.4,7.4,0,0,1-3.556-.956,6.471,6.471,0,0,1-2.068-9.491,7.2,7.2,0,0,1,5.078-2.867,7.356,7.356,0,0,1,4.551,1.063,6.445,6.445,0,0,1,1.431,9.863,7.174,7.174,0,0,1-4.6,2.34l-.164.016C3068.208,454.757,3067.985,454.768,3067.762,454.768Zm.171-12.312c-.2,0-.409.009-.615.029v0a6.1,6.1,0,0,0-4.35,2.452,5.435,5.435,0,0,0,1.761,7.98,6.242,6.242,0,0,0,3.6.784l.164-.014a6.164,6.164,0,0,0,3.928-2,5.415,5.415,0,0,0,1.4-4.176,5.484,5.484,0,0,0-2.609-4.126A6.325,6.325,0,0,0,3067.934,442.456Z" transform="translate(-3058.542 -439.105)" fill="#191d39"/>
      </g>
      <g id="Group_202" data-name="Group 202" transform="translate(285.633 150.053)">
        <path id="Path_147" data-name="Path 147" d="M3077.179,451.886l-.1,2.5-12.919,7.938-1.2.72,0,.013,13.709.552.036.039-.091,2.258-.038.038-17.534-.707-.032-.037.1-2.5q.943-.608,7.363-4.508l6.77-4.185-13.72-.554-.04-.023.092-2.25.039-.032,17.533.705Z" transform="translate(-3058.491 -450.625)" fill="#191d39"/>
        <path id="Path_148" data-name="Path 148" d="M3076.782,466.689l-17.758-.714-.281-.327-.025-.243.109-2.77.227-.145c.683-.441,3.37-2.088,7.375-4.517l5.326-3.292-12.272-.557-.266-.159-.027-.332.1-2.474.327-.28.241-.025,17.743.714.3.311.026.255-.114,2.777-12.9,7.925,12.222.491.289.318.027.25-.1,2.468-.309.3Zm-17.007-1.724,16.568.668.052-1.3-13.8-.559.115-.811,1.409-.859,12.682-7.789.069-1.741-16.572-.668-.052,1.268,14.932.6-8.208,5.076c-3.647,2.211-6.2,3.769-7.127,4.36Z" transform="translate(-3058.719 -450.853)" fill="#191d39"/>
      </g>
      <g id="Group_203" data-name="Group 203" transform="translate(282.587 166.598)">
        <path id="Path_149" data-name="Path 149" d="M3075.9,472.67q-.006.038-2.731.584l-15.851,3.429-.007-.023.434-2.479a3.438,3.438,0,0,1,.854-.205l3.15-.68,1.445-8.24-3.472-2.161.43-2.451h.013l13.753,8.595,2.356,1.486Zm-10.57-6.266-1.115,6.357,8.379-1.793q.005-.037-2.974-1.867Z" transform="translate(-3056.783 -459.858)" fill="#191d39"/>
        <path id="Path_150" data-name="Path 150" d="M3057.212,477.543l-.2-.555.013-.159.436-2.479c.071-.4.348-.452,1.27-.625l2.795-.6,1.324-7.554-3.47-2.161.576-3.29.711.146,16.4,10.267-.434,2.479c-.056.393-.075.4-3.141,1.013Zm1.216-2.7-.251,1.434,15.11-3.269c1.4-.282,2.07-.423,2.386-.495l.257-1.475-2.059-1.3-13.112-8.193-.238,1.356,3.47,2.161-1.564,8.927-3.49.754Q3058.616,474.8,3058.428,474.841Zm5.37-1.154,1.383-7.873,4.942,3.108c3.266,2,3.266,2,3.211,2.377l-.05.357Zm2.136-6.175-.849,4.839,6.4-1.37c-.43-.268-1.042-.647-1.911-1.181Z" transform="translate(-3057.014 -460.116)" fill="#191d39"/>
      </g>
      <g id="Group_204" data-name="Group 204" transform="translate(282.608 192.35)">
        <path id="Path_151" data-name="Path 151" d="M3062.079,475.44l-2.72,8.034-.016.007-2.179-.738-.007-.014,2.723-8.036Z" transform="translate(-3056.924 -474.409)" fill="#191d39"/>
        <path id="Path_152" data-name="Path 152" d="M3059.482,483.84l-.109-.021-2.272-.77-.075-.17.022-.1,2.795-8.248,2.62.89-2.82,8.327Zm-1.945-1.115,1.779.6,2.582-7.623-1.777-.6Z" transform="translate(-3057.026 -474.534)" fill="#191d39"/>
      </g>
      <g id="Group_205" data-name="Group 205" transform="translate(269.888 207.904)">
        <path id="Path_153" data-name="Path 153" d="M3070.026,491.252l-4.228,8.464-.014,0-2.068-1.032,3.2-6.407-4.771-2.381-2.531,5.073-.016.005-2.045-1.023-.007-.016,2.532-5.073-4.769-2.381-3.2,6.407-2.066-1.032-.006-.016,4.224-8.461.018-.007,15.745,7.861Z" transform="translate(-3049.8 -483.137)" fill="#191d39"/>
        <path id="Path_154" data-name="Path 154" d="M3065.877,500.057l-.088-.032-2.27-1.132,3.2-6.409-4.371-2.181-2.474,4.962-.177.052-.1-.034-2.116-1.059-.075-.17.039-.109,2.433-4.874-4.369-2.181-3.2,6.407-2.35-1.174-.057-.177.036-.1,4.264-8.539.171-.068.107.037,15.831,7.9.052.177-.032.1-4.276,8.556Zm-1.758-1.363,1.679.836,4.039-8.084-15.366-7.673-4.037,8.088,1.68.836,3.2-6.407,5.167,2.583-2.538,5.08,1.668.838,2.538-5.085,5.169,2.581Z" transform="translate(-3049.904 -483.242)" fill="#191d39"/>
      </g>
      <g id="Group_206" data-name="Group 206" transform="translate(260.525 219.542)">
        <path id="Path_155" data-name="Path 155" d="M3067.214,499.541l-1.37,2.1-15.159.175-1.4.007-.007.009,11.479,7.513.011.052-1.238,1.89-.052.011-14.682-9.606-.008-.05,1.368-2.1q1.123-.043,8.632-.091l7.958-.116-11.49-7.518-.02-.041,1.235-1.883.05-.009,14.682,9.608Z" transform="translate(-3044.562 -489.658)" fill="#191d39"/>
        <path id="Path_156" data-name="Path 156" d="M3059.587,511.62l-.13-.039-14.763-9.658-.032-.184.041-.123,1.429-2.192.116-.005c.714-.027,3.3-.055,8.639-.091l7.227-.105-10.933-7.152-.08-.171.05-.145,1.286-1.965.182-.032.124.039,14.758,9.659.04.179-.041.129-1.434,2.2-.12,0-15.839.179,10.954,7.164.036.182-.039.129-1.29,1.97Zm-14.411-9.917,14.37,9.4,1.035-1.581-11.513-7.532.19-.288.126-.009,1.4-.007,15.039-.173,1.2-1.84-14.369-9.4-1.022,1.559,11.946,7.816-8.686.127c-5.083.034-7.664.061-8.513.088Z" transform="translate(-3044.662 -489.758)" fill="#191d39"/>
      </g>
      <g id="Group_207" data-name="Group 207" transform="translate(251.766 234.665)">
        <path id="Path_157" data-name="Path 157" d="M3059.477,509.646l-6.062,7.261-.016,0-1.774-1.481,4.587-5.5-4.094-3.417-3.633,4.355-.014,0-1.758-1.468v-.014l3.631-4.353-4.092-3.417-4.586,5.5-1.777-1.481,0-.018,6.061-7.262.018,0,13.51,11.272Z" transform="translate(-3039.656 -498.124)" fill="#191d39"/>
        <path id="Path_158" data-name="Path 158" d="M3053.447,517.24l-.089-.059-1.945-1.624,4.589-5.5-3.753-3.131-3.545,4.251-.184.021-.089-.061-1.838-1.533v-.186l.052-.077,3.488-4.181-3.749-3.131-4.589,5.5-2.016-1.683-.019-.184.059-.089,6.119-7.332.184-.02.089.059,13.583,11.333.014.182-.057.091-6.121,7.332Zm-1.406-1.738,1.439,1.2,5.794-6.937-13.189-11L3040.3,505.7l1.443,1.2,4.589-5.5,4.433,3.7-3.638,4.362,1.43,1.193,3.64-4.362,4.435,3.7Z" transform="translate(-3039.758 -498.225)" fill="#191d39"/>
      </g>
      <g id="Group_208" data-name="Group 208" transform="translate(240.931 244.566)">
        <path id="Path_159" data-name="Path 159" d="M3054.519,516.518l-4.154,4.049a6.234,6.234,0,0,1-4.859,1.806,5.727,5.727,0,0,1-3.578-1.69,5.615,5.615,0,0,1-1.568-4.456,5.836,5.836,0,0,1,.575-2.1q-.046-.043-4.539-1.279l-2.575-.713,0-.034,1.957-1.906a8,8,0,0,1,1.282.366q4.949,1.423,5.341,1.568l2.4-2.336-4.175-4.281-.007-.045,1.614-1.57.05,0,12.242,12.569Zm-3.265-.095-4.828-4.958-2.6,2.536a3.831,3.831,0,0,0-1.139,3.108,3.315,3.315,0,0,0,.87,1.893l.107.111a3.312,3.312,0,0,0,2.976.884,4.3,4.3,0,0,0,2.36-1.323l2.258-2.2Z" transform="translate(-3033.592 -503.668)" fill="#191d39"/>
        <path id="Path_160" data-name="Path 160" d="M3045.984,522.7c-.128,0-.257,0-.389-.009a5.972,5.972,0,0,1-3.726-1.758,5.858,5.858,0,0,1-1.632-4.626,6.72,6.72,0,0,1,.482-1.958c-.784-.23-3.356-.938-4.283-1.193l-2.729-.756-.014-.263.072-.1,1.958-1.908c.12-.109.138-.123,1.506.314,2.8.806,4.662,1.35,5.214,1.525l2.14-2.084-4.067-4.172-.03-.186.077-.125,1.681-1.636.186.007.113.066,12.308,12.637-.007.184-.066.116-4.155,4.049A6.435,6.435,0,0,1,3045.984,522.7Zm-11.656-10.59,2.227.616c4.555,1.252,4.571,1.27,4.639,1.334l.118.122-.082.146a5.712,5.712,0,0,0-.548,2.02,5.355,5.355,0,0,0,1.507,4.274,5.54,5.54,0,0,0,3.442,1.624,6.069,6.069,0,0,0,4.678-1.745l4.022-3.919-11.983-12.3-1.336,1.3,4.2,4.308-2.658,2.592-.13-.05c-.277-.1-2.269-.684-5.327-1.563-.725-.232-1.021-.316-1.143-.345Zm11.765,8.25a3.33,3.33,0,0,1-2.5-1l-.107-.111a3.547,3.547,0,0,1-.93-2.015,4.076,4.076,0,0,1,1.206-3.3l2.763-2.692,5.051,5.189-.009.234-2.322,2.263a4.548,4.548,0,0,1-2.485,1.384A5.162,5.162,0,0,1,3046.093,520.365Zm.429-8.484-2.445,2.381A3.587,3.587,0,0,0,3043,517.2a3.1,3.1,0,0,0,.805,1.75l.109.111a3.075,3.075,0,0,0,2.787.818,4.115,4.115,0,0,0,2.233-1.263l2.123-2.068Z" transform="translate(-3033.692 -503.768)" fill="#191d39"/>
      </g>
      <g id="Group_209" data-name="Group 209" transform="translate(229.476 257.577)">
        <path id="Path_161" data-name="Path 161" d="M3041.305,526.885l-.029.025a8.182,8.182,0,0,1-6.249,1.536,8.982,8.982,0,0,1-2.214-.639l-.268-.134q.85-1.776,1.019-2.09a5.965,5.965,0,0,0,1.511.507,6.181,6.181,0,0,0,4.813-1.029,6.025,6.025,0,0,0,2.383-4.76,6.766,6.766,0,0,0-1.347-4.137,6.64,6.64,0,0,0-4.7-2.649,5.934,5.934,0,0,0-6.468,5.5,6.6,6.6,0,0,0,.51,3.122l3.541-2.663.041.016,1.352,1.8,0,.016.014.021-3.832,2.894-1.743,1.311-.048-.007a15.1,15.1,0,0,1-1.272-2.072,8.829,8.829,0,0,1-.881-3.194,8.551,8.551,0,0,1,1.338-5.373,8.449,8.449,0,0,1,1.936-2.07,8.33,8.33,0,0,1,5.855-1.6,8.923,8.923,0,0,1,6.194,3.551l.029.036a8.95,8.95,0,0,1,1.688,6.894,8.45,8.45,0,0,1-.268,1.045A8.037,8.037,0,0,1,3041.305,526.885Z" transform="translate(-3027.18 -510.955)" fill="#191d39"/>
        <path id="Path_162" data-name="Path 162" d="M3036.457,528.859a10.158,10.158,0,0,1-1.361-.095,9.28,9.28,0,0,1-2.275-.657l-.47-.236.093-.2c.573-1.2.909-1.888,1.025-2.1l.105-.193.193.1a5.714,5.714,0,0,0,1.454.486,4.836,4.836,0,0,0,1.411.114,5.629,5.629,0,0,0,3.221-1.1,5.838,5.838,0,0,0,2.3-4.6,6.567,6.567,0,0,0-1.3-3.99,6.457,6.457,0,0,0-4.555-2.561,5.711,5.711,0,0,0-6.217,5.3,6.563,6.563,0,0,0,.386,2.747l3.409-2.563.173.068.079.066,1.406,1.87,0,.016.081.105-.161.155-5.649,4.262-.189-.027-.105-.087a15.075,15.075,0,0,1-1.291-2.113,9.066,9.066,0,0,1-.9-3.267,8.8,8.8,0,0,1,1.372-5.5,8.444,8.444,0,0,1,8-3.779,9.31,9.31,0,0,1,8.114,10.734,7.271,7.271,0,0,1-.285,1.1,8.259,8.259,0,0,1-2.965,4.236l-.027.022A8.22,8.22,0,0,1,3036.457,528.859Zm-3.515-1.189.072.036a8.893,8.893,0,0,0,2.151.618,7.991,7.991,0,0,0,6.078-1.495l.029-.025a7.856,7.856,0,0,0,2.82-4.038,7.426,7.426,0,0,0,.265-1.029,8.864,8.864,0,0,0-7.721-10.21,8.137,8.137,0,0,0-5.692,1.561,8.119,8.119,0,0,0-3.185,7.246,8.654,8.654,0,0,0,.86,3.117,13.7,13.7,0,0,0,1.143,1.877l5.246-3.96-1.127-1.5-3.6,2.711-.115-.257a6.837,6.837,0,0,1-.531-3.224,6.159,6.159,0,0,1,6.708-5.707,6.894,6.894,0,0,1,4.865,2.738,7,7,0,0,1,1.393,4.269,6.274,6.274,0,0,1-2.472,4.94,6.033,6.033,0,0,1-3.451,1.19,5.926,5.926,0,0,1-1.532-.12,6.5,6.5,0,0,1-1.377-.432C3033.611,526.275,3033.336,526.843,3032.941,527.67Z" transform="translate(-3027.279 -511.052)" fill="#191d39"/>
      </g>
      <g id="Group_210" data-name="Group 210" transform="translate(220.812 266.028)">
        <path id="Path_163" data-name="Path 163" d="M3033.689,530.973l-1.965,1.2-.015,0-9.145-15.034,0-.018,1.965-1.193.017.005,9.143,15.034Z" transform="translate(-3022.322 -515.676)" fill="#191d39"/>
        <path id="Path_164" data-name="Path 164" d="M3031.873,532.513l-.182-.038-.068-.086-9.195-15.12.054-.177.078-.061,2.05-1.248.177.059.057.075,9.195,15.116-.052.179-.077.057Zm-8.9-15.209,8.926,14.673,1.6-.977-8.924-14.669Z" transform="translate(-3022.428 -515.784)" fill="#191d39"/>
      </g>
      <g id="Group_211" data-name="Group 211" transform="translate(203.672 268.782)">
        <path id="Path_165" data-name="Path 165" d="M3027.182,537.42q-.03.013-2.075-1.863l-12.1-10.8.018-.021,2.257-1.109a3.454,3.454,0,0,1,.668.571l2.406,2.145,7.509-3.679-.293-4.078,2.236-1.1.008.013,1.143,16.177.182,2.781Zm-1.153-12.233-5.791,2.838,6.376,5.719c.025-.013-.057-1.179-.238-3.5Z" transform="translate(-3012.695 -517.197)" fill="#191d39"/>
        <path id="Path_166" data-name="Path 166" d="M3027.337,537.774c-.148,0-.454-.28-2.245-1.925l-12.26-10.94.23-.243,2.259-1.109c.167-.079.234-.032.918.609l2.288,2.042,7.239-3.547-.292-4.08,2.561-1.254.139.289,1.334,19.108-2.091,1.025A.173.173,0,0,1,3027.337,537.774Zm-13.807-12.84,11.862,10.585c1.255,1.152,1.766,1.609,1.954,1.768l1.7-.832-.173-2.631-1.12-15.859-1.81.886.293,4.078-7.78,3.813-2.516-2.245c-.3-.284-.456-.42-.533-.484Zm13.183,9.206-.111-.1-6.625-5.939,6.387-3.131.371,5.385c.281,3.635.281,3.635.115,3.717Zm-5.944-5.932,5.739,5.149c-.048-.786-.166-2.3-.218-2.969l-.325-4.726Z" transform="translate(-3012.832 -517.326)" fill="#191d39"/>
      </g>
      <g id="Group_212" data-name="Group 212" transform="translate(186.145 279.097)">
        <path id="Path_167" data-name="Path 167" d="M3017.319,540.1l-9.052,2.744-.016-.009-.668-2.211,6.853-2.076-1.548-5.1-5.425,1.643-.01-.007-.666-2.188.007-.014,5.426-1.645-1.547-5.1-6.851,2.075-.67-2.213.007-.013,9.054-2.745.016.011,5.1,16.84Z" transform="translate(-3002.914 -522.995)" fill="#191d39"/>
        <path id="Path_168" data-name="Path 168" d="M3008.345,543.191l-.163-.089-.041-.1-.732-2.424.214-.066,6.637-2.009-1.417-4.676-5.3,1.6-.161-.091-.037-.093-.689-2.274.082-.166.1-.041,5.212-1.579-1.416-4.674-6.851,2.075-.759-2.511.081-.166.1-.041,9.146-2.772.159.095.042.093,5.128,16.938-.1.157-.089.036Zm-.379-2.313.543,1.8,8.648-2.62-4.978-16.438-8.646,2.622.542,1.793,6.851-2.075,1.679,5.53-5.437,1.649.541,1.782,5.431-1.647,1.679,5.532-.214.066Z" transform="translate(-3003.019 -523.101)" fill="#191d39"/>
      </g>
      <g id="Group_213" data-name="Group 213" transform="translate(158.058 284.252)">
        <path id="Path_169" data-name="Path 169" d="M3007.77,543.623l-2.8.323q-.078-.067-3.917-6.562l-4.048-6.805-.025.005-4.7,14.825-2.809.325-.039-.03-2.013-17.433.028-.041,2.381-.273.029.034,1.472,12.744.025,0,4.219-13.378.046-.054,1.958-.225a4.08,4.08,0,0,1,.448.723l6.765,11.381.024,0-1.47-12.746.02-.038,2.379-.277.039.032,2.013,17.433Z" transform="translate(-2987.192 -525.885)" fill="#191d39"/>
        <path id="Path_170" data-name="Path 170" d="M2989.518,546.068l-.15-.111-.05-.125-2.024-17.518.107-.152.128-.052,2.5-.288.118.146.034.1,1.36,11.76,4.011-12.573.057-.064,2.045-.237c.177-.025.206.02.668.836l6.26,10.529-1.367-11.824.084-.168.139-.052,2.47-.288.146.114.05.123,2.023,17.518-.109.152-.127.052-2.9.334-.073-.063c-.05-.041-.111-.089-3.967-6.619l-3.808-6.4-4.6,14.52Zm-1.749-17.536,1.97,17.061,2.481-.288,4.69-14.811.284-.059.105.132,4.047,6.8c2.8,4.73,3.619,6.1,3.836,6.439l2.476-.286-1.97-17.063-2,.232,1.475,12.789-.368.03-.094-.12-6.766-11.381c-.2-.348-.3-.52-.353-.6l-1.722.2-4.233,13.421-.366.054-.052-.223-1.45-12.562Z" transform="translate(-2987.294 -525.987)" fill="#191d39"/>
      </g>
      <g id="Group_214" data-name="Group 214" transform="translate(144.091 286.093)">
        <path id="Path_171" data-name="Path 171" d="M2989.068,544.929l-9.459-.17-.01-.011.041-2.311,7.159.129.095-5.333-5.666-.1-.013-.009.038-2.29.015-.011,5.667.1.1-5.328-7.16-.127.039-2.311.014-.012,9.456.166.013.011-.312,17.6Z" transform="translate(-2979.376 -526.92)" fill="#191d39"/>
        <path id="Path_172" data-name="Path 172" d="M2989.163,545.251l-9.538-.172-.143-.12-.008-.116.044-2.534,7.159.129.087-4.887-5.512-.1-.152-.109-.011-.125.039-2.388.14-.123.1-.009,5.445.095.089-4.882-7.161-.125.045-2.636.142-.121.1-.011,9.536.168.141.121.011.114-.313,17.688-.13.13Zm-9.24-.613,9.036.163.3-17.172-9.036-.161-.032,1.877,7.161.127-.1,5.774-5.682-.1-.03,1.863,5.678.1-.1,5.778-7.158-.127Z" transform="translate(-2979.474 -527.018)" fill="#191d39"/>
      </g>
      <g id="Group_215" data-name="Group 215" transform="translate(136.828 285.533)">
        <path id="Path_173" data-name="Path 173" d="M2977.831,544.586l-2.286-.211-.013-.012,1.62-17.522.014-.013,2.29.213.011.014-1.621,17.52Z" transform="translate(-2975.311 -526.607)" fill="#191d39"/>
        <path id="Path_174" data-name="Path 174" d="M2977.909,544.9l-2.368-.218-.131-.132,0-.116,1.627-17.609.139-.123.111,0,2.388.221.111.148,0,.1-1.629,17.625-.155.1Zm-2.036-.636,1.87.173,1.58-17.1-1.87-.173Z" transform="translate(-2975.408 -526.704)" fill="#191d39"/>
      </g>
      <g id="Group_216" data-name="Group 216" transform="translate(116.458 283.636)">
        <path id="Path_175" data-name="Path 175" d="M2970.975,543.224l-.037-.007a8.27,8.27,0,0,1-5.5-3.84,9.075,9.075,0,0,1,2.8-12.283,8.261,8.261,0,0,1,11.188,2.108,9.079,9.079,0,0,1,1.516,6.959l-.01.045a8.952,8.952,0,0,1-3.973,5.88l-.92.5A8.235,8.235,0,0,1,2970.975,543.224Zm7.693-7.477a6.671,6.671,0,0,0-1.191-5.269,5.957,5.957,0,0,0-8.913-.686,6.658,6.658,0,0,0-1.954,3.519l-.031.155a6.619,6.619,0,0,0,.849,4.7,5.927,5.927,0,0,0,9.079,1.359A6.789,6.789,0,0,0,2978.668,535.748Z" transform="translate(-2963.906 -525.544)" fill="#191d39"/>
        <path id="Path_176" data-name="Path 176" d="M2972.6,543.694a8.259,8.259,0,0,1-1.575-.152l-.036-.007a8.507,8.507,0,0,1-5.641-3.938,9.3,9.3,0,0,1,2.854-12.59,8.491,8.491,0,0,1,11.494,2.156,8.966,8.966,0,0,1,1.116,2.1,9.3,9.3,0,0,1-3.636,11.108l-.94.511A8.738,8.738,0,0,1,2972.6,543.694Zm.236-17.6a8.456,8.456,0,0,0-4.392,1.293,8.85,8.85,0,0,0-2.715,11.979,8.069,8.069,0,0,0,5.345,3.733l-.006.227.041-.22a8.055,8.055,0,0,0,4.93-.625l.906-.493a8.866,8.866,0,0,0,3.445-10.583,8.662,8.662,0,0,0-1.058-1.981,8.124,8.124,0,0,0-5.008-3.186A7.784,7.784,0,0,0,2972.841,526.09Zm-.232,15.291a6.307,6.307,0,0,1-1.177-.113,6.233,6.233,0,0,1-4.094-2.883,6.88,6.88,0,0,1-.881-4.862l.031-.155a6.907,6.907,0,0,1,2.016-3.637,6.178,6.178,0,0,1,9.245.707,6.923,6.923,0,0,1,1.236,5.448l-.22-.041.22.041a7.049,7.049,0,0,1-2.229,3.9A6.483,6.483,0,0,1,2972.609,541.381Zm.191-12.96a5.994,5.994,0,0,0-3.992,1.636,6.474,6.474,0,0,0-1.881,3.4l-.03.155a6.431,6.431,0,0,0,.822,4.544,5.782,5.782,0,0,0,3.8,2.677,5.844,5.844,0,0,0,4.946-1.381,6.567,6.567,0,0,0,2.084-3.646h0a6.479,6.479,0,0,0-1.156-5.1,5.793,5.793,0,0,0-4.591-2.284Z" transform="translate(-2964.003 -525.642)" fill="#191d39"/>
      </g>
      <g id="Group_217" data-name="Group 217" transform="translate(95.201 273.866)">
        <path id="Path_177" data-name="Path 177" d="M2952.439,539.308c-.021-.007-.032-.94-.027-2.79l-.184-16.218.025,0,2.341.923a3.431,3.431,0,0,1,.027.879l.041,3.222,7.782,3.063,2.809-2.967,2.317.913,0,.011L2956.395,538.1l-1.931,2.008Zm8.254-9.1-6-2.367.078,8.57q.036.013,2.424-2.538Z" transform="translate(-2952.003 -520.073)" fill="#191d39"/>
        <path id="Path_178" data-name="Path 178" d="M2954.622,540.468l-2.161-.852c-.182-.061-.182-.091-.173-3l-.186-16.427.259-.018.073.018,2.342.922c.178.061.184.179.167,1.091l.039,3.065,7.5,2.954,2.809-2.967,2.656,1.045-.121.295Zm-1.873-1.218,1.757.691,1.827-1.9,10.953-11.522-1.872-.738-2.811,2.967-8.062-3.176-.042-3.37c.007-.416,0-.62,0-.722l-1.945-.765.182,15.9C2952.729,538.4,2952.74,539.03,2952.749,539.25Zm2.106-2.515a.184.184,0,0,1-.081-.023l-.129-.059-.084-9.043,6.621,2.611-3.729,3.9C2955.333,536.394,2955.012,536.735,2954.855,536.735Zm.16-8.466.07,7.714c.318-.329.916-.959,2.042-2.163l3.274-3.428Z" transform="translate(-2952.102 -520.172)" fill="#191d39"/>
      </g>
      <g id="Group_218" data-name="Group 218" transform="translate(68.207 263.661)">
        <path id="Path_179" data-name="Path 179" d="M2953.086,539.043l-2.443-1.406q-.024-.1.761-7.6l.8-7.877-.02-.013-12.6,9.116-2.451-1.411-.014-.048,8.761-15.205.05-.013,2.075,1.195v.045l-6.4,11.115.021.013,11.357-8.234.064-.018,1.711.986a4.206,4.206,0,0,1-.073.847l-1.34,13.173.021.012,6.407-11.117.038-.016,2.075,1.195.013.047-8.759,15.205Z" transform="translate(-2936.889 -514.359)" fill="#191d39"/>
        <path id="Path_180" data-name="Path 180" d="M2953.2,539.368l-.127-.03-2.522-1.452-.025-.089c-.016-.07-.036-.139.755-7.684l.752-7.411-12.339,8.925-2.654-1.527-.052-.179.034-.13,8.807-15.286.181-.046.127.034,2.183,1.256.007.188-.03.1-5.907,10.254,10.7-7.707.089-.023,1.791,1.031c.157.079.15.164.036,1.07l-1.24,12.187,5.95-10.32.17-.077.138.039,2.156,1.243.046.179-.032.125-8.809,15.289Zm-2.229-1.756,2.165,1.245,8.571-14.878-1.74-1-6.423,11.145-.32-.186-.006-.155,1.34-13.173c.048-.4.068-.6.075-.693l-1.5-.865-11.4,8.266-.316-.186.09-.2,6.31-10.954-1.742-1-8.573,14.88,2.163,1.247,12.6-9.118.25.147,0,.155-.8,7.875C2951.153,535.623,2951,537.209,2950.971,537.613Z" transform="translate(-2936.989 -514.459)" fill="#191d39"/>
      </g>
      <g id="Group_219" data-name="Group 219" transform="translate(55.831 255.87)">
        <path id="Path_181" data-name="Path 181" d="M2937.138,529.3l-4.6-3.581a5.641,5.641,0,0,1-2.357-4.239,4.118,4.118,0,0,1,.924-2.635l.155-.2a4.469,4.469,0,0,1,3.315-1.749l.016-.02a4.262,4.262,0,0,1-.286-1.195,4.152,4.152,0,0,1,.86-2.965l.532-.684a4.7,4.7,0,0,1,4.232-1.8,4.849,4.849,0,0,1,1.477.389,6.737,6.737,0,0,1,1.863,1.116l4.7,3.661.007.055-10.79,13.837Zm-.395-3.236,3.049-3.91-2.647-2.067a3.184,3.184,0,0,0-3.29-.655,1.98,1.98,0,0,0-.67.527l-.334.429q-.814,1.045.286,2.649a5.33,5.33,0,0,0,1.1,1.072Zm4.512-5.748,3.485-4.471-3.16-2.463a3.052,3.052,0,0,0-3.229-.6,2.924,2.924,0,0,0-.976.859l-.259.33a2.151,2.151,0,0,0-.051,2.692,4.838,4.838,0,0,0,1.3,1.443l2.834,2.211Z" transform="translate(-2929.962 -509.999)" fill="#191d39"/>
        <path id="Path_182" data-name="Path 182" d="M2937.223,529.621l-.124-.05-4.6-3.581a5.875,5.875,0,0,1-2.443-4.4,4.358,4.358,0,0,1,.97-2.783l.155-.2a4.664,4.664,0,0,1,3.2-1.808,6.153,6.153,0,0,1-.2-.991,4.406,4.406,0,0,1,.9-3.131l.534-.686a4.964,4.964,0,0,1,4.417-1.884,4.733,4.733,0,0,1,1.568.413,7.02,7.02,0,0,1,1.9,1.141l4.765,3.715.028.182-.05.132L2937.407,529.6Zm2.4-19.083a4.357,4.357,0,0,0-3.646,1.729l-.534.684a3.923,3.923,0,0,0-.811,2.811,3.991,3.991,0,0,0,.264,1.113l.063.129-.152.186-.111.027a4.257,4.257,0,0,0-3.156,1.663l-.155.2a3.926,3.926,0,0,0-.877,2.5,5.444,5.444,0,0,0,2.272,4.063l4.446,3.463,10.559-13.542-4.551-3.547a6.552,6.552,0,0,0-1.8-1.079l-.068-.038a4.362,4.362,0,0,0-1.379-.346C2939.866,510.542,2939.741,510.538,2939.621,510.538Zm-2.74,15.936-2.683-2.093a5.6,5.6,0,0,1-1.146-1.122c-.792-1.156-.886-2.135-.279-2.913l.336-.429a2.185,2.185,0,0,1,.745-.588,3.4,3.4,0,0,1,3.527.679l2.824,2.2Zm-1.842-6.939a2.665,2.665,0,0,0-1,.2,1.732,1.732,0,0,0-.577.457l-.336.429c-.478.616-.384,1.4.295,2.384a5.179,5.179,0,0,0,1.053,1.023l2.331,1.817,2.774-3.558-2.472-1.927A3.364,3.364,0,0,0,2935.039,519.535Zm6.195,1.113-.071-.054-2.836-2.211a5.1,5.1,0,0,1-1.358-1.513,2.357,2.357,0,0,1,.072-2.936l.257-.33a3.186,3.186,0,0,1,1.052-.922,3.28,3.28,0,0,1,3.469.621l3.334,2.6-3.683,4.721Zm-1.668-7.779a2.6,2.6,0,0,0-1.029.22,2.728,2.728,0,0,0-.885.788l-.259.334a1.927,1.927,0,0,0-.04,2.433,4.611,4.611,0,0,0,1.25,1.386l2.69,2.1,3.231-4.148-2.983-2.325A3.219,3.219,0,0,0,2939.566,512.869Z" transform="translate(-2930.06 -510.097)" fill="#191d39"/>
      </g>
      <g id="Group_220" data-name="Group 220" transform="translate(48.276 249.896)">
        <path id="Path_183" data-name="Path 183" d="M2927.646,521.411l-1.691-1.559v-.014l11.906-12.955.018,0,1.689,1.557,0,.014-11.908,12.955Z" transform="translate(-2925.732 -506.651)" fill="#191d39"/>
        <path id="Path_184" data-name="Path 184" d="M2927.695,521.752l-.1-.075-1.763-1.627v-.184l.059-.079,11.964-13.017.184-.018.093.066,1.749,1.615.023.182-.068.091-11.954,13Zm-1.333-1.818,1.375,1.27,11.622-12.642-1.377-1.272Z" transform="translate(-2925.83 -506.752)" fill="#191d39"/>
      </g>
      <g id="Group_221" data-name="Group 221" transform="translate(37.614 239.936)">
        <path id="Path_185" data-name="Path 185" d="M2926.455,520.258l-6.469-6.9v-.018l1.688-1.581,4.9,5.224,3.89-3.647-3.88-4.133,0-.018,1.667-1.566.018,0,3.879,4.135,3.886-3.647-4.9-5.223,1.686-1.579.02,0,6.469,6.9v.02l-12.836,12.033Z" transform="translate(-2919.763 -501.075)" fill="#191d39"/>
        <path id="Path_186" data-name="Path 186" d="M2926.663,520.582h-.187l-.083-.07-6.532-6.964v-.186l.069-.084,1.851-1.733,4.9,5.223,3.563-3.342-3.8-4.044.018-.184.063-.075,1.741-1.636.186.018.073.063,3.728,3.974,3.559-3.342-4.9-5.224,1.9-1.782.186-.018.091.077,6.532,6.964v.186l-.069.086Zm-6.271-7.121,6.182,6.593,12.53-11.747-6.184-6.593-1.37,1.282,4.9,5.224-4.211,3.953-3.889-4.146-1.359,1.279,3.886,4.142-4.215,3.953-4.9-5.224Z" transform="translate(-2919.861 -501.176)" fill="#191d39"/>
      </g>
      <g id="Group_222" data-name="Group 222" transform="translate(25.602 225.995)">
        <path id="Path_187" data-name="Path 187" d="M2921.6,515.268l-1.486-2.015,5.1-14.275.482-1.315-.009-.009-11.035,8.154-.05-.009-1.344-1.818,0-.052,14.114-10.427.052.007,1.486,2.015q-.346,1.064-2.915,8.123l-2.659,7.5,11.047-8.157.043,0,1.338,1.808-.009.052-14.114,10.427Z" transform="translate(-2913.036 -493.268)" fill="#191d39"/>
        <path id="Path_188" data-name="Path 188" d="M2921.81,515.61l-.183-.025-.1-.082-1.556-2.111.038-.111,5.338-14.914-10.529,7.78-.18-.032-.106-.08-1.391-1.884.013-.184.085-.114,14.189-10.481.182.025.109.084,1.553,2.106-.035.109c-.226.7-1.152,3.279-2.917,8.132l-2.417,6.81,10.517-7.764.186-.009.115.093,1.393,1.886-.033.182-.078.1Zm-1.345-2.292,1.306,1.766,13.812-10.2-1.107-1.5-11.483,8.479,2.9-8.188c1.682-4.622,2.6-7.184,2.879-8.009l-1.308-1.772-13.814,10.2,1.125,1.522,11.036-8.155.236.236-.04.143-.482,1.315Z" transform="translate(-2913.136 -493.371)" fill="#191d39"/>
      </g>
      <g id="Group_223" data-name="Group 223" transform="translate(17.382 217.842)">
        <path id="Path_189" data-name="Path 189" d="M2914.488,503.789l-5.819-10.122.005-.018,1.993-1.141.017,0,2.327,4.047,13.253-7.618.017.005,1.15,2,0,.016-13.253,7.62,2.327,4.047,0,.016-1.993,1.145Z" transform="translate(-2908.428 -488.7)" fill="#191d39"/>
        <path id="Path_190" data-name="Path 190" d="M2914.65,504.135l-.182-.038-.068-.089-5.866-10.206.052-.179.082-.061,2.07-1.186.18.039.064.089,2.215,3.854,13.144-7.554.177.052.062.082,1.191,2.076-.037.182-.091.068-13.058,7.507,2.258,3.926-.037.182-.091.068Zm-5.577-10.29,5.61,9.756,1.625-.934-2.334-4.058,13.264-7.625-.942-1.638-13.262,7.625-2.332-4.058Z" transform="translate(-2908.534 -488.806)" fill="#191d39"/>
      </g>
      <g id="Group_224" data-name="Group 224" transform="translate(11.633 202.92)">
        <path id="Path_191" data-name="Path 191" d="M2909.363,496.5l-3.915-8.611,0-.018,2.1-.954,2.962,6.519,4.856-2.21-2.349-5.158.008-.014,2.082-.95.017.009,2.347,5.158,4.853-2.206-2.963-6.518,2.1-.957.016.005,3.914,8.611-.006.018-16.02,7.282Z" transform="translate(-2905.21 -480.347)" fill="#191d39"/>
        <path id="Path_192" data-name="Path 192" d="M2909.484,496.852l-.168-.075-.053-.084-3.947-8.688.053-.179.1-.059,2.307-1.045,2.964,6.516,4.448-2.022-2.3-5.053.084-.166.078-.046,2.184-.995.163.091.046.075,2.255,4.955,4.445-2.024-2.962-6.514,2.386-1.088.175.059.057.093,3.948,8.69-.052.175-.1.061Zm-3.642-8.765,3.742,8.229,15.634-7.105-3.741-8.229-1.709.777,2.965,6.518-5.262,2.39-2.351-5.169-1.7.772,2.354,5.171-5.264,2.393-2.963-6.521Z" transform="translate(-2905.315 -480.452)" fill="#191d39"/>
      </g>
      <g id="Group_225" data-name="Group 225" transform="translate(15.143 187.756)">
        <path id="Path_193" data-name="Path 193" d="M2909.84,480.9l-2.424-8.13.009-.014,2.2-.655.016.007,2.424,8.134Z" transform="translate(-2907.173 -471.857)" fill="#191d39"/>
        <path id="Path_194" data-name="Path 194" d="M2909.8,481.277l-.064-.212-2.452-8.229.1-.157.089-.037,2.283-.679.17.075.044.105,2.487,8.347Zm-2-8.268,2.3,7.713,1.8-.53-2.3-7.718Z" transform="translate(-2907.28 -471.962)" fill="#191d39"/>
      </g>
    </g>
    <g id="Group_233" data-name="Group 233" transform="translate(2932.287 400.388)">
      <g id="Group_227" data-name="Group 227">
        <circle id="Ellipse_13" data-name="Ellipse 13" cx="114.164" cy="114.164" r="114.164" transform="translate(4.465 4.465)" fill="#73b680"/>
        <path id="Path_195" data-name="Path 195" d="M3036.178,622.883a118.629,118.629,0,1,1,118.629-118.629A118.765,118.765,0,0,1,3036.178,622.883Zm0-228.328a109.7,109.7,0,1,0,109.7,109.7A109.824,109.824,0,0,0,3036.178,394.555Z" transform="translate(-2917.549 -385.624)" fill="#1c223f"/>
      </g>
      <g id="Group_232" data-name="Group 232" transform="translate(55.809 41.34)">
        <g id="Group_228" data-name="Group 228">
          <circle id="Ellipse_14" data-name="Ellipse 14" cx="58.355" cy="58.355" r="58.355" transform="translate(4.465 4.465)" fill="#36a065"/>
          <path id="Path_196" data-name="Path 196" d="M3011.615,534.409a62.82,62.82,0,1,1,62.822-62.82A62.891,62.891,0,0,1,3011.615,534.409Zm0-116.709a53.889,53.889,0,1,0,53.891,53.889A53.949,53.949,0,0,0,3011.615,417.7Z" transform="translate(-2948.795 -408.769)" fill="#1c223f"/>
        </g>
        <g id="Group_229" data-name="Group 229" transform="translate(58.355 71.09)">
          <path id="Path_197" data-name="Path 197" d="M2985.931,567.784a4.466,4.466,0,0,1-4.465-4.465V453.035a4.465,4.465,0,0,1,8.931,0V563.318A4.466,4.466,0,0,1,2985.931,567.784Z" transform="translate(-2981.466 -448.57)" fill="#1c223f"/>
        </g>
        <g id="Group_230" data-name="Group 230" transform="translate(59.248 69.378)">
          <path id="Path_198" data-name="Path 198" d="M2985.54,478.537a3.572,3.572,0,0,1-2.415-6.209l25.985-23.781a3.573,3.573,0,0,1,4.825,5.271L2987.95,477.6A3.568,3.568,0,0,1,2985.54,478.537Z" transform="translate(-2981.966 -447.611)" fill="#1c223f"/>
        </g>
        <g id="Group_231" data-name="Group 231" transform="translate(32.562 69.376)">
          <path id="Path_199" data-name="Path 199" d="M2996.58,478.538a3.561,3.561,0,0,1-2.41-.936l-25.984-23.782a3.573,3.573,0,0,1,4.824-5.271l25.985,23.781a3.572,3.572,0,0,1-2.415,6.209Z" transform="translate(-2967.026 -447.611)" fill="#1c223f"/>
        </g>
      </g>
    </g>
    <g id="Group_234" data-name="Group 234" transform="translate(2994.132 600.235)">
      <path id="Path_200" data-name="Path 200" d="M2954.673,515.823s25.947-15.811,52.321-15.811,52.32,15.811,52.32,15.811-25.844,12.671-52.32,12.671S2954.673,515.823,2954.673,515.823Z" transform="translate(-2950.21 -495.547)" fill="#276b45"/>
      <path id="Path_201" data-name="Path 201" d="M3008.958,534.924c-27.2,0-53.191-12.592-54.286-13.126a4.467,4.467,0,0,1-.357-7.823c1.1-.672,27.331-16.463,54.643-16.463S3062.5,513.3,3063.6,513.975a4.467,4.467,0,0,1-.359,7.823C3062.15,522.332,3036.158,534.924,3008.958,534.924Zm-41.885-17.588c9.49,3.606,25.676,8.657,41.885,8.657s32.384-5.048,41.874-8.656c-9.4-4.483-25.686-10.9-41.874-10.9C2992.728,506.443,2976.463,512.853,2967.074,517.336Z" transform="translate(-2952.175 -497.512)" fill="#1c223f"/>
    </g>
  </g>
</svg>
