<svg xmlns="http://www.w3.org/2000/svg" width="23.126" height="18.796" viewBox="0 0 23.126 18.796">
  <path id="Path_206" data-name="Path 206" d="M60.627,11.85A9.424,9.424,0,0,1,57.9,12.6a4.734,4.734,0,0,0,2.086-2.624,9.5,9.5,0,0,1-3.015,1.15,4.752,4.752,0,0,0-8.084,4.327,13.464,13.464,0,0,1-9.78-4.959,4.752,4.752,0,0,0,1.468,6.339,4.752,4.752,0,0,1-2.15-.594v.058a4.743,4.743,0,0,0,3.81,4.652,4.768,4.768,0,0,1-2.143.082,4.747,4.747,0,0,0,4.431,3.3,9.521,9.521,0,0,1-5.892,2.032,9.419,9.419,0,0,1-1.13-.066A13.494,13.494,0,0,0,58.275,14.919c0-.208,0-.413-.015-.613a9.556,9.556,0,0,0,2.367-2.457" transform="translate(-37.501 -9.624)" fill="#272749"/>
</svg>
