<svg xmlns="http://www.w3.org/2000/svg" width="23.368" height="23.368" viewBox="0 0 23.368 23.368">
  <g id="Group_259" data-name="Group 259" transform="translate(0)">
    <g id="Group_257" data-name="Group 257" transform="translate(6.313)">
      <path id="Path_211" data-name="Path 211" d="M908.851,380.8l3.29-3.291a6.156,6.156,0,1,0-8.705-8.706l-4.748,4.748a6.152,6.152,0,0,0,1.153,9.61l2.542-2.542a2.764,2.764,0,0,1-1.32-.738,2.8,2.8,0,0,1,0-3.957l4.748-4.748a2.8,2.8,0,0,1,3.957,3.957l-1.395,1.4A7.55,7.55,0,0,1,908.851,380.8Z" transform="translate(-896.886 -367)" fill="#272749"/>
    </g>
    <g id="Group_258" data-name="Group 258" transform="translate(0 7.208)">
      <path id="Path_212" data-name="Path 212" d="M896.423,375.7l-3.29,3.291a6.156,6.156,0,0,0,8.706,8.706l4.748-4.748a6.153,6.153,0,0,0-1.153-9.61l-2.542,2.542a2.794,2.794,0,0,1,1.32,4.695l-4.748,4.748a2.8,2.8,0,0,1-3.957-3.957l1.395-1.395A7.547,7.547,0,0,1,896.423,375.7Z" transform="translate(-891.333 -373.341)" fill="#272749"/>
    </g>
  </g>
</svg>
