<svg xmlns="http://www.w3.org/2000/svg" width="37" height="37" viewBox="0 0 37 37"><defs><style>.a{fill:#11a0dd;fill-rule:evenodd;}</style></defs><path class="a" d="M68.187,43.211a18.137,18.137,0,0,1-12.733,17.2,17.8,17.8,0,0,1-5.43.819,18.183,18.183,0,0,1-8.78-2.242l-10.057,3.2,3.278-9.669a17.831,17.831,0,0,1-2.605-9.306,18.164,18.164,0,0,1,36.327,0ZM50.024,28.057A15.228,15.228,0,0,0,34.752,43.211,15,15,0,0,0,37.661,52.1l-1.907,5.627,5.868-1.865a15.193,15.193,0,1,0,8.4-27.8ZM59.2,47.362c-.113-.185-.41-.295-.853-.516s-2.636-1.291-3.043-1.437-.707-.221-1,.221-1.151,1.437-1.411,1.732-.518.331-.964.11a12.187,12.187,0,0,1-3.581-2.192,13.425,13.425,0,0,1-2.477-3.06c-.258-.441-.026-.68.195-.9.2-.2.446-.515.669-.772a3.047,3.047,0,0,0,.446-.739.8.8,0,0,0-.038-.773c-.11-.221-1-2.395-1.373-3.281s-.741-.736-1-.736-.556-.036-.853-.036a1.639,1.639,0,0,0-1.187.552,4.941,4.941,0,0,0-1.558,3.684,8.552,8.552,0,0,0,1.817,4.568c.223.295,3.079,4.9,7.606,6.67s4.527,1.178,5.343,1.1a4.5,4.5,0,0,0,3.005-2.1,3.672,3.672,0,0,0,.261-2.1Zm0,0" transform="translate(-31.187 -25.186)"/></svg>