<?xml version="1.0" standalone="no"?>
<!DOCTYPE svg PUBLIC "-//W3C//DTD SVG 20010904//EN"
 "http://www.w3.org/TR/2001/REC-SVG-20010904/DTD/svg10.dtd">
<svg version="1.0" xmlns="http://www.w3.org/2000/svg"
 width="111.000000pt" height="111.000000pt" viewBox="0 0 111.000000 111.000000"
 preserveAspectRatio="xMidYMid meet">
<metadata>
Created by potrace 1.11, written by Peter Selinger 2001-2013
</metadata>
<g transform="translate(0.000000,111.000000) scale(0.100000,-0.100000)"
fill="#000000" stroke="none">
<path d="M229 1096 c-15 -9 -34 -32 -44 -52 -14 -31 -15 -43 -6 -75 36 -120
210 -97 211 28 0 83 -91 138 -161 99z m110 -33 c59 -48 22 -147 -54 -147 -74
0 -112 88 -60 139 29 30 83 33 114 8z"/>
<path d="M625 1062 c-43 -20 -101 -79 -116 -119 -18 -48 -11 -135 16 -181 23
-41 24 -45 9 -73 -18 -36 -26 -35 -56 11 -13 19 -42 47 -65 64 -34 24 -55 30
-115 34 -41 2 -100 -1 -131 -8 l-58 -12 3 -226 3 -227 36 -75 c86 -181 265
-272 470 -241 151 24 259 102 321 235 l33 71 3 372 3 371 -103 6 c-57 3 -128
8 -158 11 -41 4 -65 1 -95 -13z"/>
</g>
</svg>
